<svg width="51" height="9" viewBox="0 0 51 9" fill="none" xmlns="http://www.w3.org/2000/svg">
<g id="Joel Cox">
<path d="M3.12162 8.8671C2.54669 8.8671 2.02402 8.77004 1.55362 8.5759C1.08322 8.3743 0.698691 8.08684 0.400024 7.7135L1.60962 6.2799C2.02776 6.82497 2.47949 7.0975 2.96482 7.0975C3.28589 7.0975 3.52856 7.00044 3.69282 6.8063C3.86456 6.61217 3.95042 6.32844 3.95042 5.9551V2.5839H1.24002V0.870302H6.14563V5.8207C6.14563 6.83617 5.88802 7.59777 5.37283 8.1055C4.86509 8.61324 4.11469 8.8671 3.12162 8.8671Z" fill="#B10000"/>
<path d="M10.588 8.8111C9.9384 8.8111 9.35227 8.6767 8.8296 8.4079C8.30693 8.1391 7.89627 7.76577 7.5976 7.2879C7.3064 6.81004 7.1608 6.2687 7.1608 5.6639C7.1608 5.06657 7.3064 4.52897 7.5976 4.0511C7.89627 3.57324 8.3032 3.20364 8.8184 2.9423C9.34107 2.6735 9.93093 2.5391 10.588 2.5391C11.2451 2.5391 11.8349 2.6735 12.3576 2.9423C12.8803 3.20364 13.2872 3.57324 13.5784 4.0511C13.8696 4.5215 14.0152 5.0591 14.0152 5.6639C14.0152 6.2687 13.8696 6.81004 13.5784 7.2879C13.2872 7.76577 12.8803 8.1391 12.3576 8.4079C11.8349 8.6767 11.2451 8.8111 10.588 8.8111ZM10.588 7.1199C10.9613 7.1199 11.2675 6.99297 11.5064 6.7391C11.7453 6.47777 11.8648 6.11937 11.8648 5.6639C11.8648 5.2159 11.7453 4.86497 11.5064 4.6111C11.2675 4.35724 10.9613 4.2303 10.588 4.2303C10.2147 4.2303 9.90853 4.35724 9.6696 4.6111C9.43067 4.86497 9.3112 5.2159 9.3112 5.6639C9.3112 6.11937 9.43067 6.47777 9.6696 6.7391C9.90853 6.99297 10.2147 7.1199 10.588 7.1199Z" fill="#B10000"/>
<path d="M21.2058 5.6863C21.2058 5.70124 21.1946 5.8767 21.1722 6.2127H16.7594C16.849 6.5263 17.0207 6.76897 17.2746 6.9407C17.5359 7.10497 17.8607 7.1871 18.249 7.1871C18.5402 7.1871 18.7903 7.14604 18.9994 7.0639C19.2159 6.98177 19.4324 6.84737 19.649 6.6607L20.769 7.8255C20.1791 8.48257 19.3167 8.8111 18.1818 8.8111C17.4724 8.8111 16.849 8.6767 16.3114 8.4079C15.7738 8.1391 15.3556 7.76577 15.057 7.2879C14.7658 6.81004 14.6202 6.2687 14.6202 5.6639C14.6202 5.06657 14.762 4.5327 15.0458 4.0623C15.337 3.58444 15.7364 3.2111 16.2442 2.9423C16.7519 2.6735 17.3231 2.5391 17.9578 2.5391C18.5626 2.5391 19.1114 2.66604 19.6042 2.9199C20.097 3.1663 20.4852 3.52844 20.769 4.0063C21.0602 4.4767 21.2058 5.0367 21.2058 5.6863ZM17.969 4.0511C17.6404 4.0511 17.3642 4.14444 17.1402 4.3311C16.9236 4.51777 16.7855 4.77164 16.7258 5.0927H19.2122C19.1524 4.77164 19.0106 4.51777 18.7866 4.3311C18.57 4.14444 18.2975 4.0511 17.969 4.0511Z" fill="#B10000"/>
<path d="M22.1869 0.399902H24.3149V8.7103H22.1869V0.399902Z" fill="#B10000"/>
<path d="M32.9668 8.8671C32.1455 8.8671 31.4063 8.69537 30.7492 8.3519C30.0996 8.00097 29.5882 7.51564 29.2148 6.8959C28.8415 6.27617 28.6548 5.5743 28.6548 4.7903C28.6548 4.0063 28.8415 3.30444 29.2148 2.6847C29.5882 2.06497 30.0996 1.58337 30.7492 1.2399C31.4063 0.888969 32.1455 0.713502 32.9668 0.713502C33.6836 0.713502 34.3295 0.840436 34.9044 1.0943C35.4794 1.34817 35.9572 1.71404 36.338 2.1919L34.9268 3.4687C34.4191 2.85644 33.8031 2.5503 33.0788 2.5503C32.6532 2.5503 32.2724 2.64364 31.9364 2.8303C31.6079 3.01697 31.3503 3.28204 31.1636 3.6255C30.9844 3.9615 30.8948 4.34977 30.8948 4.7903C30.8948 5.23084 30.9844 5.62284 31.1636 5.9663C31.3503 6.3023 31.6079 6.56364 31.9364 6.7503C32.2724 6.93697 32.6532 7.0303 33.0788 7.0303C33.8031 7.0303 34.4191 6.72417 34.9268 6.1119L36.338 7.3887C35.9572 7.86657 35.4794 8.23244 34.9044 8.4863C34.3295 8.74017 33.6836 8.8671 32.9668 8.8671Z" fill="#B10000"/>
<path d="M40.0864 8.8111C39.4368 8.8111 38.8507 8.6767 38.328 8.4079C37.8054 8.1391 37.3947 7.76577 37.096 7.2879C36.8048 6.81004 36.6592 6.2687 36.6592 5.6639C36.6592 5.06657 36.8048 4.52897 37.096 4.0511C37.3947 3.57324 37.8016 3.20364 38.3168 2.9423C38.8395 2.6735 39.4294 2.5391 40.0864 2.5391C40.7435 2.5391 41.3334 2.6735 41.856 2.9423C42.3787 3.20364 42.7856 3.57324 43.0768 4.0511C43.368 4.5215 43.5136 5.0591 43.5136 5.6639C43.5136 6.2687 43.368 6.81004 43.0768 7.2879C42.7856 7.76577 42.3787 8.1391 41.856 8.4079C41.3334 8.6767 40.7435 8.8111 40.0864 8.8111ZM40.0864 7.1199C40.4598 7.1199 40.7659 6.99297 41.0048 6.7391C41.2438 6.47777 41.3632 6.11937 41.3632 5.6639C41.3632 5.2159 41.2438 4.86497 41.0048 4.6111C40.7659 4.35724 40.4598 4.2303 40.0864 4.2303C39.7131 4.2303 39.407 4.35724 39.168 4.6111C38.9291 4.86497 38.8096 5.2159 38.8096 5.6639C38.8096 6.11937 38.9291 6.47777 39.168 6.7391C39.407 6.99297 39.7131 7.1199 40.0864 7.1199Z" fill="#B10000"/>
<path d="M48.1772 8.7103L47.0908 7.1199L45.926 8.7103H43.6188L45.926 5.6751L43.686 2.6399H46.0828L47.158 4.1743L48.278 2.6399H50.5292L48.2892 5.5967L50.6076 8.7103H48.1772Z" fill="#B10000"/>
</g>
</svg>
