<svg width="51" height="8" viewBox="0 0 51 8" fill="none" xmlns="http://www.w3.org/2000/svg">
<g id="Real Estate">
<path d="M5.49129 7.10852L3.93645 4.92989C3.7068 4.96092 3.49576 4.97644 3.30334 4.97644H1.44126V7.10852H0.966431V0.591233H3.30334C4.12266 0.591233 4.76508 0.786751 5.2306 1.17779C5.69612 1.56262 5.92888 2.09952 5.92888 2.78849C5.92888 3.30367 5.79543 3.73815 5.52853 4.09195C5.26784 4.43954 4.89232 4.68471 4.40197 4.82747L6.0313 7.10852H5.49129ZM3.30334 4.55747C3.99852 4.55747 4.52922 4.4054 4.89543 4.10126C5.26164 3.79091 5.44474 3.35332 5.44474 2.78849C5.44474 2.22366 5.26164 1.78917 4.89543 1.48503C4.52922 1.17469 3.99852 1.01951 3.30334 1.01951H1.44126V4.55747H3.30334Z" fill="white"/>
<path d="M11.6243 4.79023H7.44393C7.45635 5.16885 7.55256 5.50713 7.73256 5.80506C7.91256 6.09679 8.15463 6.32334 8.45877 6.48472C8.76912 6.6461 9.1167 6.72679 9.50154 6.72679C9.81809 6.72679 10.1098 6.67093 10.3767 6.55921C10.6498 6.44128 10.8764 6.27059 11.0564 6.04713L11.3264 6.35438C11.1153 6.60886 10.8484 6.80438 10.5257 6.94093C10.2091 7.07749 9.86464 7.14576 9.49223 7.14576C9.00808 7.14576 8.5767 7.04025 8.19808 6.82921C7.81945 6.61817 7.52152 6.32645 7.30428 5.95403C7.09324 5.58161 6.98772 5.15644 6.98772 4.6785C6.98772 4.20678 7.08703 3.7847 7.28566 3.41229C7.49049 3.03366 7.7698 2.73883 8.12359 2.5278C8.47739 2.31676 8.87463 2.21124 9.31533 2.21124C9.75602 2.21124 10.1502 2.31676 10.4978 2.5278C10.8515 2.73263 11.1278 3.02125 11.3264 3.39367C11.5312 3.76608 11.6336 4.18816 11.6336 4.65988L11.6243 4.79023ZM9.31533 2.6209C8.97395 2.6209 8.6667 2.69849 8.3936 2.85366C8.12049 3.00263 7.90014 3.21677 7.73256 3.49608C7.57118 3.76919 7.47807 4.07953 7.45324 4.42712H11.1774C11.1588 4.07953 11.0657 3.76919 10.8981 3.49608C10.7305 3.22298 10.5102 3.00884 10.2371 2.85366C9.96395 2.69849 9.65671 2.6209 9.31533 2.6209Z" fill="white"/>
<path d="M14.576 2.21124C15.1781 2.21124 15.6405 2.36642 15.9633 2.67677C16.286 2.98091 16.4474 3.43091 16.4474 4.02677V7.10852H16.0005V6.24265C15.8453 6.52817 15.6188 6.75162 15.3208 6.913C15.0229 7.06818 14.666 7.14576 14.2501 7.14576C13.7101 7.14576 13.2819 7.01852 12.9653 6.76404C12.655 6.50955 12.4998 6.17438 12.4998 5.75851C12.4998 5.35506 12.6425 5.0292 12.9281 4.78092C13.2198 4.52643 13.6822 4.39919 14.3153 4.39919H15.9819V4.00815C15.9819 3.55505 15.8577 3.21056 15.6095 2.9747C15.3674 2.73883 15.0105 2.6209 14.5388 2.6209C14.216 2.6209 13.9057 2.67677 13.6077 2.78849C13.316 2.90022 13.0677 3.04918 12.8629 3.23539L12.6301 2.90022C12.8722 2.68297 13.1639 2.51538 13.5053 2.39745C13.8467 2.27331 14.2036 2.21124 14.576 2.21124ZM14.3153 6.76404C14.7188 6.76404 15.0601 6.67093 15.3395 6.48472C15.625 6.29852 15.8391 6.02851 15.9819 5.67472V4.7623H14.3246C13.8467 4.7623 13.4991 4.8492 13.2819 5.02299C13.0708 5.19678 12.9653 5.43575 12.9653 5.73989C12.9653 6.05645 13.0832 6.30783 13.3191 6.49403C13.555 6.67404 13.887 6.76404 14.3153 6.76404Z" fill="white"/>
<path d="M18.3654 0.200195H18.8309V7.10852H18.3654V0.200195Z" fill="white"/>
<path d="M27.8302 6.68024V7.10852H23.3332V0.591233H27.6905V1.01951H23.8081V3.58919H27.2809V4.00815H23.8081V6.68024H27.8302Z" fill="white"/>
<path d="M30.5596 7.14576C30.1685 7.14576 29.7961 7.0868 29.4423 6.96887C29.0885 6.85093 28.8123 6.70197 28.6137 6.52197L28.8278 6.14955C29.0265 6.31714 29.281 6.45679 29.5913 6.56852C29.9079 6.68024 30.2368 6.7361 30.5782 6.7361C31.0686 6.7361 31.4286 6.65542 31.6582 6.49403C31.8941 6.33265 32.012 6.1092 32.012 5.82368C32.012 5.61886 31.9468 5.45748 31.8165 5.33954C31.6924 5.22161 31.5372 5.13471 31.351 5.07885C31.1648 5.02299 30.9072 4.96402 30.5782 4.90195C30.1934 4.83368 29.883 4.75919 29.6472 4.6785C29.4113 4.59781 29.2096 4.46747 29.042 4.28747C28.8744 4.10747 28.7906 3.85919 28.7906 3.54263C28.7906 3.1578 28.9489 2.84125 29.2654 2.59297C29.5882 2.33849 30.0444 2.21124 30.6341 2.21124C30.9444 2.21124 31.2517 2.25469 31.5558 2.34159C31.8599 2.42849 32.1082 2.54332 32.3006 2.68608L32.0865 3.05849C31.8879 2.91573 31.6613 2.80711 31.4068 2.73263C31.1523 2.65814 30.8917 2.6209 30.6248 2.6209C30.1717 2.6209 29.8303 2.7047 29.6006 2.87228C29.371 3.03987 29.2561 3.26022 29.2561 3.53332C29.2561 3.75057 29.3213 3.92126 29.4516 4.0454C29.582 4.16333 29.7403 4.25333 29.9265 4.3154C30.1189 4.37126 30.3858 4.43333 30.7272 4.50161C31.1058 4.56988 31.4099 4.64437 31.6396 4.72506C31.8755 4.79954 32.0741 4.92368 32.2355 5.09747C32.3968 5.27127 32.4775 5.51023 32.4775 5.81437C32.4775 6.21783 32.3099 6.54059 31.9748 6.78266C31.6396 7.02473 31.1679 7.14576 30.5596 7.14576Z" fill="white"/>
<path d="M36.1881 6.80128C36.0702 6.913 35.9212 6.9999 35.7412 7.06197C35.5674 7.11783 35.3843 7.14576 35.1919 7.14576C34.7698 7.14576 34.4439 7.03093 34.2143 6.80128C33.9846 6.56541 33.8698 6.23955 33.8698 5.82368V2.64883H32.976V2.24849H33.8698V1.1871H34.3353V2.24849H35.8808V2.64883H34.3353V5.77713C34.3353 6.09369 34.4098 6.33576 34.5588 6.50335C34.7139 6.66473 34.9405 6.74542 35.2384 6.74542C35.5426 6.74542 35.794 6.65542 35.9926 6.47541L36.1881 6.80128Z" fill="white"/>
<path d="M39.125 2.21124C39.727 2.21124 40.1894 2.36642 40.5122 2.67677C40.835 2.98091 40.9963 3.43091 40.9963 4.02677V7.10852H40.5494V6.24265C40.3943 6.52817 40.1677 6.75162 39.8698 6.913C39.5718 7.06818 39.215 7.14576 38.7991 7.14576C38.2591 7.14576 37.8308 7.01852 37.5142 6.76404C37.2039 6.50955 37.0487 6.17438 37.0487 5.75851C37.0487 5.35506 37.1915 5.0292 37.477 4.78092C37.7687 4.52643 38.2311 4.39919 38.8643 4.39919H40.5308V4.00815C40.5308 3.55505 40.4067 3.21056 40.1584 2.9747C39.9163 2.73883 39.5594 2.6209 39.0877 2.6209C38.7649 2.6209 38.4546 2.67677 38.1567 2.78849C37.8649 2.90022 37.6167 3.04918 37.4118 3.23539L37.1791 2.90022C37.4211 2.68297 37.7129 2.51538 38.0543 2.39745C38.3956 2.27331 38.7525 2.21124 39.125 2.21124ZM38.8643 6.76404C39.2677 6.76404 39.6091 6.67093 39.8884 6.48472C40.1739 6.29852 40.3881 6.02851 40.5308 5.67472V4.7623H38.8736C38.3956 4.7623 38.048 4.8492 37.8308 5.02299C37.6198 5.19678 37.5142 5.43575 37.5142 5.73989C37.5142 6.05645 37.6322 6.30783 37.868 6.49403C38.1039 6.67404 38.436 6.76404 38.8643 6.76404Z" fill="white"/>
<path d="M45.3258 6.80128C45.2078 6.913 45.0589 6.9999 44.8789 7.06197C44.7051 7.11783 44.522 7.14576 44.3295 7.14576C43.9075 7.14576 43.5816 7.03093 43.3519 6.80128C43.1223 6.56541 43.0075 6.23955 43.0075 5.82368V2.64883H42.1137V2.24849H43.0075V1.1871H43.473V2.24849H45.0185V2.64883H43.473V5.77713C43.473 6.09369 43.5475 6.33576 43.6964 6.50335C43.8516 6.66473 44.0782 6.74542 44.3761 6.74542C44.6802 6.74542 44.9316 6.65542 45.1302 6.47541L45.3258 6.80128Z" fill="white"/>
<path d="M50.5571 4.79023H46.3767C46.3892 5.16885 46.4854 5.50713 46.6654 5.80506C46.8454 6.09679 47.0874 6.32334 47.3916 6.48472C47.7019 6.6461 48.0495 6.72679 48.4343 6.72679C48.7509 6.72679 49.0426 6.67093 49.3095 6.55921C49.5826 6.44128 49.8092 6.27059 49.9892 6.04713L50.2592 6.35438C50.0481 6.60886 49.7812 6.80438 49.4585 6.94093C49.1419 7.07749 48.7975 7.14576 48.425 7.14576C47.9409 7.14576 47.5095 7.04025 47.1309 6.82921C46.7523 6.61817 46.4543 6.32645 46.2371 5.95403C46.0261 5.58161 45.9205 5.15644 45.9205 4.6785C45.9205 4.20678 46.0198 3.7847 46.2185 3.41229C46.4233 3.03366 46.7026 2.73883 47.0564 2.5278C47.4102 2.31676 47.8074 2.21124 48.2481 2.21124C48.6888 2.21124 49.083 2.31676 49.4306 2.5278C49.7844 2.73263 50.0606 3.02125 50.2592 3.39367C50.464 3.76608 50.5664 4.18816 50.5664 4.65988L50.5571 4.79023ZM48.2481 2.6209C47.9068 2.6209 47.5995 2.69849 47.3264 2.85366C47.0533 3.00263 46.833 3.21677 46.6654 3.49608C46.504 3.76919 46.4109 4.07953 46.3861 4.42712H50.1102C50.0916 4.07953 49.9985 3.76919 49.8309 3.49608C49.6633 3.22298 49.443 3.00884 49.1699 2.85366C48.8968 2.69849 48.5895 2.6209 48.2481 2.6209Z" fill="white"/>
</g>
</svg>
