<svg width="86" height="34" viewBox="0 0 86 34" fill="none" xmlns="http://www.w3.org/2000/svg">
<g id="Group 32">
<g id="Subtitle">
<path d="M9.58666 7.38146H12.8523V12.793C12.1058 13.328 11.2475 13.7385 10.2771 14.0246C9.30676 14.3107 8.33641 14.4538 7.36606 14.4538C5.99762 14.4538 4.76602 14.1677 3.67127 13.5954C2.57652 13.0107 1.71813 12.2021 1.09611 11.1696C0.474095 10.137 0.163086 8.96761 0.163086 7.66137C0.163086 6.35513 0.474095 5.18574 1.09611 4.15319C1.71813 3.12064 2.58274 2.31823 3.68993 1.74598C4.79712 1.16128 6.04738 0.868931 7.4407 0.868931C8.65986 0.868931 9.75461 1.0742 10.725 1.48473C11.6953 1.89526 12.5039 2.48618 13.1508 3.25748L10.7996 5.38478C9.91633 4.41444 8.8589 3.92926 7.62731 3.92926C6.50767 3.92926 5.60575 4.27137 4.92153 4.95559C4.23731 5.62737 3.8952 6.5293 3.8952 7.66137C3.8952 8.38291 4.0507 9.02981 4.36171 9.60207C4.67272 10.1619 5.10813 10.6035 5.66795 10.927C6.22777 11.238 6.86844 11.3935 7.58999 11.3935C8.29909 11.3935 8.96465 11.2504 9.58666 10.9643V7.38146Z" fill="url(#paint0_linear_3970_930)"/>
<path d="M20.1025 14.3605C19.0202 14.3605 18.0436 14.1366 17.1728 13.6887C16.3019 13.2409 15.6177 12.6189 15.1201 11.8227C14.6349 11.0265 14.3923 10.1246 14.3923 9.11689C14.3923 8.12167 14.6349 7.22596 15.1201 6.42978C15.6177 5.63359 16.2957 5.01779 17.1541 4.58238C18.0249 4.13453 19.0077 3.9106 20.1025 3.9106C21.1972 3.9106 22.18 4.13453 23.0508 4.58238C23.9217 5.01779 24.5997 5.63359 25.0848 6.42978C25.57 7.21352 25.8126 8.10922 25.8126 9.11689C25.8126 10.1246 25.57 11.0265 25.0848 11.8227C24.5997 12.6189 23.9217 13.2409 23.0508 13.6887C22.18 14.1366 21.1972 14.3605 20.1025 14.3605ZM20.1025 11.5428C20.7245 11.5428 21.2345 11.3313 21.6326 10.9083C22.0307 10.4729 22.2298 9.87576 22.2298 9.11689C22.2298 8.37047 22.0307 7.78578 21.6326 7.3628C21.2345 6.93983 20.7245 6.72834 20.1025 6.72834C19.4804 6.72834 18.9704 6.93983 18.5723 7.3628C18.1742 7.78578 17.9752 8.37047 17.9752 9.11689C17.9752 9.87576 18.1742 10.4729 18.5723 10.9083C18.9704 11.3313 19.4804 11.5428 20.1025 11.5428Z" fill="url(#paint1_linear_3970_930)"/>
<path d="M27.455 0.346436H31.0005V14.1926H27.455V0.346436Z" fill="url(#paint2_linear_3970_930)"/>
<path d="M44.0531 0.346436V14.1926H40.6756V13.1849C40.0162 13.9686 39.0272 14.3605 37.7086 14.3605C36.788 14.3605 35.9482 14.149 35.1894 13.726C34.4305 13.2906 33.8272 12.6748 33.3793 11.8787C32.9439 11.0825 32.7262 10.1619 32.7262 9.11689C32.7262 8.0719 32.9439 7.15754 33.3793 6.37379C33.8272 5.57761 34.4305 4.96803 35.1894 4.54506C35.9482 4.12209 36.788 3.9106 37.7086 3.9106C38.9153 3.9106 39.8483 4.25893 40.5076 4.95559V0.346436H44.0531ZM38.455 11.5428C39.0646 11.5428 39.5684 11.3313 39.9665 10.9083C40.3646 10.4729 40.5636 9.87576 40.5636 9.11689C40.5636 8.37047 40.3646 7.78578 39.9665 7.3628C39.5808 6.93983 39.077 6.72834 38.455 6.72834C37.833 6.72834 37.3229 6.93983 36.9248 7.3628C36.5267 7.78578 36.3277 8.37047 36.3277 9.11689C36.3277 9.87576 36.5267 10.4729 36.9248 10.9083C37.3229 11.3313 37.833 11.5428 38.455 11.5428Z" fill="url(#paint3_linear_3970_930)"/>
<path d="M63.0914 4.07855L59.4899 14.1926H56.0564L54.153 8.6877L52.175 14.1926H48.7415L45.14 4.07855H48.4989L50.5702 10.1992L52.7162 4.07855H55.7392L57.8291 10.2552L59.9751 4.07855H63.0914Z" fill="url(#paint4_linear_3970_930)"/>
<path d="M74.2393 9.15421C74.2393 9.1791 74.2207 9.47145 74.1834 10.0313H66.8311C66.9804 10.5538 67.2665 10.9581 67.6895 11.2442C68.1249 11.5179 68.6661 11.6547 69.313 11.6547C69.7981 11.6547 70.2149 11.5863 70.5632 11.4495C70.924 11.3126 71.2848 11.0887 71.6455 10.7777L73.5116 12.7184C72.5288 13.8131 71.0919 14.3605 69.201 14.3605C68.0192 14.3605 66.9804 14.1366 66.0847 13.6887C65.189 13.2409 64.4923 12.6189 63.9947 11.8227C63.5095 11.0265 63.2669 10.1246 63.2669 9.11689C63.2669 8.12167 63.5033 7.23218 63.976 6.44844C64.4612 5.65225 65.1268 5.03023 65.9727 4.58238C66.8187 4.13453 67.7704 3.9106 68.8278 3.9106C69.8355 3.9106 70.7498 4.12209 71.5709 4.54506C72.392 4.95559 73.0389 5.55895 73.5116 6.35513C73.9968 7.13888 74.2393 8.0719 74.2393 9.15421ZM68.8465 6.42978C68.2991 6.42978 67.8388 6.58528 67.4656 6.89629C67.1048 7.2073 66.8747 7.63027 66.7751 8.16521H70.9178C70.8182 7.63027 70.5819 7.2073 70.2087 6.89629C69.8479 6.58528 69.3938 6.42978 68.8465 6.42978Z" fill="url(#paint5_linear_3970_930)"/>
<path d="M75.874 0.346436H79.4195V14.1926H75.874V0.346436Z" fill="url(#paint6_linear_3970_930)"/>
<path d="M81.7237 0.346436H85.2692V14.1926H81.7237V0.346436Z" fill="url(#paint7_linear_3970_930)"/>
</g>
<g id="Subtitle_2">
<path d="M9.37804 33.376L7.13804 30.226C6.88604 30.254 6.6247 30.268 6.35404 30.268H3.72203V33.376H2.68604V23.576H6.35404C7.6047 23.576 8.5847 23.8747 9.29404 24.472C10.0034 25.0694 10.358 25.8907 10.358 26.936C10.358 27.7014 10.162 28.35 9.77004 28.882C9.38737 29.4047 8.8367 29.7827 8.11804 30.016L10.512 33.376H9.37804ZM6.32604 29.386C7.2967 29.386 8.0387 29.1714 8.55204 28.742C9.06537 28.3127 9.32204 27.7107 9.32204 26.936C9.32204 26.1427 9.06537 25.536 8.55204 25.116C8.0387 24.6867 7.2967 24.472 6.32604 24.472H3.72203V29.386H6.32604Z" fill="url(#paint8_linear_3970_930)"/>
<path d="M19.0052 30.002H12.8452C12.9012 30.7674 13.1952 31.388 13.7272 31.864C14.2592 32.3307 14.9312 32.564 15.7432 32.564C16.2006 32.564 16.6206 32.4847 17.0032 32.326C17.3859 32.158 17.7172 31.9154 17.9972 31.598L18.5572 32.242C18.2306 32.634 17.8199 32.9327 17.3252 33.138C16.8399 33.3434 16.3032 33.446 15.7152 33.446C14.9592 33.446 14.2872 33.2874 13.6992 32.97C13.1206 32.6434 12.6679 32.1954 12.3412 31.626C12.0146 31.0567 11.8512 30.4127 11.8512 29.694C11.8512 28.9754 12.0052 28.3314 12.3132 27.762C12.6306 27.1927 13.0599 26.7494 13.6012 26.432C14.1519 26.1147 14.7679 25.956 15.4492 25.956C16.1306 25.956 16.7419 26.1147 17.2832 26.432C17.8246 26.7494 18.2492 27.1927 18.5572 27.762C18.8652 28.322 19.0192 28.966 19.0192 29.694L19.0052 30.002ZM15.4492 26.81C14.7399 26.81 14.1426 27.0387 13.6572 27.496C13.1812 27.944 12.9106 28.532 12.8452 29.26H18.0672C18.0019 28.532 17.7266 27.944 17.2412 27.496C16.7652 27.0387 16.1679 26.81 15.4492 26.81Z" fill="url(#paint9_linear_3970_930)"/>
<path d="M23.4134 25.956C24.3747 25.956 25.112 26.1987 25.6254 26.684C26.1387 27.16 26.3954 27.8694 26.3954 28.812V33.376H25.4434V32.228C25.2194 32.6107 24.888 32.9094 24.4494 33.124C24.02 33.3387 23.5067 33.446 22.9094 33.446C22.088 33.446 21.4347 33.25 20.9494 32.858C20.464 32.466 20.2214 31.948 20.2214 31.304C20.2214 30.6787 20.4454 30.1747 20.8934 29.792C21.3507 29.4094 22.074 29.218 23.0634 29.218H25.4014V28.77C25.4014 28.1354 25.224 27.6547 24.8694 27.328C24.5147 26.992 23.9967 26.824 23.3154 26.824C22.8487 26.824 22.4007 26.9034 21.9714 27.062C21.542 27.2114 21.1734 27.4214 20.8654 27.692L20.4174 26.95C20.7907 26.6327 21.2387 26.39 21.7614 26.222C22.284 26.0447 22.8347 25.956 23.4134 25.956ZM23.0634 32.662C23.6234 32.662 24.104 32.536 24.5054 32.284C24.9067 32.0227 25.2054 31.6494 25.4014 31.164V29.96H23.0914C21.8314 29.96 21.2014 30.3987 21.2014 31.276C21.2014 31.7054 21.3647 32.046 21.6914 32.298C22.018 32.5407 22.4754 32.662 23.0634 32.662Z" fill="url(#paint10_linear_3970_930)"/>
<path d="M29.0952 22.988H30.0892V33.376H29.0952V22.988Z" fill="url(#paint11_linear_3970_930)"/>
<path d="M43.659 32.48V33.376H36.729V23.576H43.449V24.472H37.765V27.958H42.833V28.84H37.765V32.48H43.659Z" fill="url(#paint12_linear_3970_930)"/>
<path d="M47.7489 33.446C47.1515 33.446 46.5775 33.362 46.0269 33.194C45.4855 33.0167 45.0609 32.7974 44.7529 32.536L45.2009 31.752C45.5089 31.9947 45.8962 32.1954 46.3629 32.354C46.8295 32.5034 47.3149 32.578 47.8189 32.578C48.4909 32.578 48.9855 32.4754 49.3029 32.27C49.6295 32.0554 49.7929 31.7567 49.7929 31.374C49.7929 31.1034 49.7042 30.8934 49.5269 30.744C49.3495 30.5854 49.1255 30.4687 48.8549 30.394C48.5842 30.31 48.2249 30.2307 47.7769 30.156C47.1795 30.044 46.6989 29.932 46.3349 29.82C45.9709 29.6987 45.6582 29.498 45.3969 29.218C45.1449 28.938 45.0189 28.5507 45.0189 28.056C45.0189 27.44 45.2755 26.936 45.7889 26.544C46.3022 26.152 47.0162 25.956 47.9309 25.956C48.4069 25.956 48.8829 26.0214 49.3589 26.152C49.8349 26.2734 50.2269 26.4367 50.5349 26.642L50.1009 27.44C49.4942 27.02 48.7709 26.81 47.9309 26.81C47.2962 26.81 46.8155 26.922 46.4889 27.146C46.1715 27.37 46.0129 27.664 46.0129 28.028C46.0129 28.308 46.1015 28.532 46.2789 28.7C46.4655 28.868 46.6942 28.994 46.9649 29.078C47.2355 29.1527 47.6089 29.232 48.0849 29.316C48.6729 29.428 49.1442 29.54 49.4989 29.652C49.8535 29.764 50.1569 29.9554 50.4089 30.226C50.6609 30.4967 50.7869 30.87 50.7869 31.346C50.7869 31.99 50.5162 32.5034 49.9749 32.886C49.4429 33.2594 48.7009 33.446 47.7489 33.446Z" fill="url(#paint13_linear_3970_930)"/>
<path d="M56.5025 32.928C56.3158 33.096 56.0825 33.2267 55.8025 33.32C55.5318 33.404 55.2471 33.446 54.9485 33.446C54.2578 33.446 53.7258 33.2594 53.3525 32.886C52.9791 32.5127 52.7925 31.9854 52.7925 31.304V26.852H51.4765V26.012H52.7925V24.402H53.7865V26.012H56.0265V26.852H53.7865V31.248C53.7865 31.6867 53.8938 32.0227 54.1085 32.256C54.3325 32.48 54.6498 32.592 55.0605 32.592C55.2658 32.592 55.4618 32.5594 55.6485 32.494C55.8445 32.4287 56.0125 32.3354 56.1525 32.214L56.5025 32.928Z" fill="url(#paint14_linear_3970_930)"/>
<path d="M60.888 25.956C61.8493 25.956 62.5866 26.1987 63.1 26.684C63.6133 27.16 63.87 27.8694 63.87 28.812V33.376H62.918V32.228C62.694 32.6107 62.3626 32.9094 61.924 33.124C61.4946 33.3387 60.9813 33.446 60.384 33.446C59.5626 33.446 58.9093 33.25 58.424 32.858C57.9386 32.466 57.696 31.948 57.696 31.304C57.696 30.6787 57.92 30.1747 58.368 29.792C58.8253 29.4094 59.5486 29.218 60.538 29.218H62.876V28.77C62.876 28.1354 62.6986 27.6547 62.344 27.328C61.9893 26.992 61.4713 26.824 60.79 26.824C60.3233 26.824 59.8753 26.9034 59.446 27.062C59.0166 27.2114 58.648 27.4214 58.34 27.692L57.892 26.95C58.2653 26.6327 58.7133 26.39 59.236 26.222C59.7586 26.0447 60.3093 25.956 60.888 25.956ZM60.538 32.662C61.098 32.662 61.5786 32.536 61.98 32.284C62.3813 32.0227 62.68 31.6494 62.876 31.164V29.96H60.566C59.306 29.96 58.676 30.3987 58.676 31.276C58.676 31.7054 58.8393 32.046 59.166 32.298C59.4926 32.5407 59.95 32.662 60.538 32.662Z" fill="url(#paint15_linear_3970_930)"/>
<path d="M70.4478 32.928C70.2611 33.096 70.0278 33.2267 69.7478 33.32C69.4771 33.404 69.1925 33.446 68.8938 33.446C68.2031 33.446 67.6711 33.2594 67.2978 32.886C66.9244 32.5127 66.7378 31.9854 66.7378 31.304V26.852H65.4218V26.012H66.7378V24.402H67.7318V26.012H69.9718V26.852H67.7318V31.248C67.7318 31.6867 67.8391 32.0227 68.0538 32.256C68.2778 32.48 68.5951 32.592 69.0058 32.592C69.2111 32.592 69.4071 32.5594 69.5938 32.494C69.7898 32.4287 69.9578 32.3354 70.0978 32.214L70.4478 32.928Z" fill="url(#paint16_linear_3970_930)"/>
<path d="M78.4095 30.002H72.2495C72.3055 30.7674 72.5995 31.388 73.1315 31.864C73.6635 32.3307 74.3355 32.564 75.1475 32.564C75.6049 32.564 76.0248 32.4847 76.4075 32.326C76.7902 32.158 77.1215 31.9154 77.4015 31.598L77.9615 32.242C77.6348 32.634 77.2242 32.9327 76.7295 33.138C76.2442 33.3434 75.7075 33.446 75.1195 33.446C74.3635 33.446 73.6915 33.2874 73.1035 32.97C72.5248 32.6434 72.0722 32.1954 71.7455 31.626C71.4189 31.0567 71.2555 30.4127 71.2555 29.694C71.2555 28.9754 71.4095 28.3314 71.7175 27.762C72.0349 27.1927 72.4642 26.7494 73.0055 26.432C73.5562 26.1147 74.1722 25.956 74.8535 25.956C75.5349 25.956 76.1462 26.1147 76.6875 26.432C77.2289 26.7494 77.6535 27.1927 77.9615 27.762C78.2695 28.322 78.4235 28.966 78.4235 29.694L78.4095 30.002ZM74.8535 26.81C74.1442 26.81 73.5469 27.0387 73.0615 27.496C72.5855 27.944 72.3148 28.532 72.2495 29.26H77.4715C77.4062 28.532 77.1309 27.944 76.6455 27.496C76.1695 27.0387 75.5722 26.81 74.8535 26.81Z" fill="url(#paint17_linear_3970_930)"/>
<path d="M82.4207 33.446C81.8234 33.446 81.2494 33.362 80.6987 33.194C80.1574 33.0167 79.7327 32.7974 79.4247 32.536L79.8727 31.752C80.1807 31.9947 80.5681 32.1954 81.0347 32.354C81.5014 32.5034 81.9867 32.578 82.4907 32.578C83.1627 32.578 83.6574 32.4754 83.9747 32.27C84.3014 32.0554 84.4647 31.7567 84.4647 31.374C84.4647 31.1034 84.3761 30.8934 84.1987 30.744C84.0214 30.5854 83.7974 30.4687 83.5267 30.394C83.2561 30.31 82.8967 30.2307 82.4487 30.156C81.8514 30.044 81.3707 29.932 81.0067 29.82C80.6427 29.6987 80.3301 29.498 80.0687 29.218C79.8167 28.938 79.6907 28.5507 79.6907 28.056C79.6907 27.44 79.9474 26.936 80.4607 26.544C80.9741 26.152 81.6881 25.956 82.6027 25.956C83.0787 25.956 83.5547 26.0214 84.0307 26.152C84.5067 26.2734 84.8987 26.4367 85.2067 26.642L84.7727 27.44C84.1661 27.02 83.4427 26.81 82.6027 26.81C81.9681 26.81 81.4874 26.922 81.1607 27.146C80.8434 27.37 80.6847 27.664 80.6847 28.028C80.6847 28.308 80.7734 28.532 80.9507 28.7C81.1374 28.868 81.3661 28.994 81.6367 29.078C81.9074 29.1527 82.2807 29.232 82.7567 29.316C83.3447 29.428 83.8161 29.54 84.1707 29.652C84.5254 29.764 84.8287 29.9554 85.0807 30.226C85.3327 30.4967 85.4587 30.87 85.4587 31.346C85.4587 31.99 85.1881 32.5034 84.6467 32.886C84.1147 33.2594 83.3727 33.446 82.4207 33.446Z" fill="url(#paint18_linear_3970_930)"/>
</g>
</g>
<defs>
<linearGradient id="paint0_linear_3970_930" x1="18.101" y1="-109.174" x2="61.6423" y2="90.9082" gradientUnits="userSpaceOnUse">
<stop stop-color="#FFEDC2"/>
<stop offset="0.1767" stop-color="#F7EFA6"/>
<stop offset="0.3763" stop-color="#F3D16E"/>
<stop offset="0.4657" stop-color="#EEC65E"/>
<stop offset="0.5676" stop-color="#E4B650"/>
<stop offset="0.6237" stop-color="#AF7121"/>
<stop offset="0.6528" stop-color="#AF7121"/>
<stop offset="0.7152" stop-color="#F2D76C"/>
<stop offset="0.7921" stop-color="#F8E77D"/>
<stop offset="0.8441" stop-color="#F7F1A4"/>
<stop offset="0.8919" stop-color="#FFF2C5"/>
<stop offset="0.9376" stop-color="#E6AD06"/>
<stop offset="0.9439" stop-color="#E6AD06"/>
<stop offset="1" stop-color="#FBCB4A"/>
</linearGradient>
<linearGradient id="paint1_linear_3970_930" x1="18.101" y1="-109.174" x2="61.6423" y2="90.9082" gradientUnits="userSpaceOnUse">
<stop stop-color="#FFEDC2"/>
<stop offset="0.1767" stop-color="#F7EFA6"/>
<stop offset="0.3763" stop-color="#F3D16E"/>
<stop offset="0.4657" stop-color="#EEC65E"/>
<stop offset="0.5676" stop-color="#E4B650"/>
<stop offset="0.6237" stop-color="#AF7121"/>
<stop offset="0.6528" stop-color="#AF7121"/>
<stop offset="0.7152" stop-color="#F2D76C"/>
<stop offset="0.7921" stop-color="#F8E77D"/>
<stop offset="0.8441" stop-color="#F7F1A4"/>
<stop offset="0.8919" stop-color="#FFF2C5"/>
<stop offset="0.9376" stop-color="#E6AD06"/>
<stop offset="0.9439" stop-color="#E6AD06"/>
<stop offset="1" stop-color="#FBCB4A"/>
</linearGradient>
<linearGradient id="paint2_linear_3970_930" x1="18.101" y1="-109.174" x2="61.6423" y2="90.9082" gradientUnits="userSpaceOnUse">
<stop stop-color="#FFEDC2"/>
<stop offset="0.1767" stop-color="#F7EFA6"/>
<stop offset="0.3763" stop-color="#F3D16E"/>
<stop offset="0.4657" stop-color="#EEC65E"/>
<stop offset="0.5676" stop-color="#E4B650"/>
<stop offset="0.6237" stop-color="#AF7121"/>
<stop offset="0.6528" stop-color="#AF7121"/>
<stop offset="0.7152" stop-color="#F2D76C"/>
<stop offset="0.7921" stop-color="#F8E77D"/>
<stop offset="0.8441" stop-color="#F7F1A4"/>
<stop offset="0.8919" stop-color="#FFF2C5"/>
<stop offset="0.9376" stop-color="#E6AD06"/>
<stop offset="0.9439" stop-color="#E6AD06"/>
<stop offset="1" stop-color="#FBCB4A"/>
</linearGradient>
<linearGradient id="paint3_linear_3970_930" x1="18.101" y1="-109.174" x2="61.6423" y2="90.9082" gradientUnits="userSpaceOnUse">
<stop stop-color="#FFEDC2"/>
<stop offset="0.1767" stop-color="#F7EFA6"/>
<stop offset="0.3763" stop-color="#F3D16E"/>
<stop offset="0.4657" stop-color="#EEC65E"/>
<stop offset="0.5676" stop-color="#E4B650"/>
<stop offset="0.6237" stop-color="#AF7121"/>
<stop offset="0.6528" stop-color="#AF7121"/>
<stop offset="0.7152" stop-color="#F2D76C"/>
<stop offset="0.7921" stop-color="#F8E77D"/>
<stop offset="0.8441" stop-color="#F7F1A4"/>
<stop offset="0.8919" stop-color="#FFF2C5"/>
<stop offset="0.9376" stop-color="#E6AD06"/>
<stop offset="0.9439" stop-color="#E6AD06"/>
<stop offset="1" stop-color="#FBCB4A"/>
</linearGradient>
<linearGradient id="paint4_linear_3970_930" x1="18.101" y1="-109.174" x2="61.6423" y2="90.9082" gradientUnits="userSpaceOnUse">
<stop stop-color="#FFEDC2"/>
<stop offset="0.1767" stop-color="#F7EFA6"/>
<stop offset="0.3763" stop-color="#F3D16E"/>
<stop offset="0.4657" stop-color="#EEC65E"/>
<stop offset="0.5676" stop-color="#E4B650"/>
<stop offset="0.6237" stop-color="#AF7121"/>
<stop offset="0.6528" stop-color="#AF7121"/>
<stop offset="0.7152" stop-color="#F2D76C"/>
<stop offset="0.7921" stop-color="#F8E77D"/>
<stop offset="0.8441" stop-color="#F7F1A4"/>
<stop offset="0.8919" stop-color="#FFF2C5"/>
<stop offset="0.9376" stop-color="#E6AD06"/>
<stop offset="0.9439" stop-color="#E6AD06"/>
<stop offset="1" stop-color="#FBCB4A"/>
</linearGradient>
<linearGradient id="paint5_linear_3970_930" x1="18.101" y1="-109.174" x2="61.6423" y2="90.9082" gradientUnits="userSpaceOnUse">
<stop stop-color="#FFEDC2"/>
<stop offset="0.1767" stop-color="#F7EFA6"/>
<stop offset="0.3763" stop-color="#F3D16E"/>
<stop offset="0.4657" stop-color="#EEC65E"/>
<stop offset="0.5676" stop-color="#E4B650"/>
<stop offset="0.6237" stop-color="#AF7121"/>
<stop offset="0.6528" stop-color="#AF7121"/>
<stop offset="0.7152" stop-color="#F2D76C"/>
<stop offset="0.7921" stop-color="#F8E77D"/>
<stop offset="0.8441" stop-color="#F7F1A4"/>
<stop offset="0.8919" stop-color="#FFF2C5"/>
<stop offset="0.9376" stop-color="#E6AD06"/>
<stop offset="0.9439" stop-color="#E6AD06"/>
<stop offset="1" stop-color="#FBCB4A"/>
</linearGradient>
<linearGradient id="paint6_linear_3970_930" x1="18.101" y1="-109.174" x2="61.6423" y2="90.9082" gradientUnits="userSpaceOnUse">
<stop stop-color="#FFEDC2"/>
<stop offset="0.1767" stop-color="#F7EFA6"/>
<stop offset="0.3763" stop-color="#F3D16E"/>
<stop offset="0.4657" stop-color="#EEC65E"/>
<stop offset="0.5676" stop-color="#E4B650"/>
<stop offset="0.6237" stop-color="#AF7121"/>
<stop offset="0.6528" stop-color="#AF7121"/>
<stop offset="0.7152" stop-color="#F2D76C"/>
<stop offset="0.7921" stop-color="#F8E77D"/>
<stop offset="0.8441" stop-color="#F7F1A4"/>
<stop offset="0.8919" stop-color="#FFF2C5"/>
<stop offset="0.9376" stop-color="#E6AD06"/>
<stop offset="0.9439" stop-color="#E6AD06"/>
<stop offset="1" stop-color="#FBCB4A"/>
</linearGradient>
<linearGradient id="paint7_linear_3970_930" x1="18.101" y1="-109.174" x2="61.6423" y2="90.9082" gradientUnits="userSpaceOnUse">
<stop stop-color="#FFEDC2"/>
<stop offset="0.1767" stop-color="#F7EFA6"/>
<stop offset="0.3763" stop-color="#F3D16E"/>
<stop offset="0.4657" stop-color="#EEC65E"/>
<stop offset="0.5676" stop-color="#E4B650"/>
<stop offset="0.6237" stop-color="#AF7121"/>
<stop offset="0.6528" stop-color="#AF7121"/>
<stop offset="0.7152" stop-color="#F2D76C"/>
<stop offset="0.7921" stop-color="#F8E77D"/>
<stop offset="0.8441" stop-color="#F7F1A4"/>
<stop offset="0.8919" stop-color="#FFF2C5"/>
<stop offset="0.9376" stop-color="#E6AD06"/>
<stop offset="0.9439" stop-color="#E6AD06"/>
<stop offset="1" stop-color="#FBCB4A"/>
</linearGradient>
<linearGradient id="paint8_linear_3970_930" x1="117.275" y1="23.8614" x2="117.193" y2="44.5108" gradientUnits="userSpaceOnUse">
<stop stop-color="white"/>
<stop offset="0.1596" stop-color="#FCFCFC" stop-opacity="0.8404"/>
<stop offset="0.2897" stop-color="#F2F2F2" stop-opacity="0.7103"/>
<stop offset="0.4094" stop-color="#E1E1E1" stop-opacity="0.5906"/>
<stop offset="0.523" stop-color="#C8C8C8" stop-opacity="0.477"/>
<stop offset="0.6322" stop-color="#A9A9A9" stop-opacity="0.3678"/>
<stop offset="0.7381" stop-color="#838383" stop-opacity="0.2619"/>
<stop offset="0.8415" stop-color="#565656" stop-opacity="0.1585"/>
<stop offset="0.9402" stop-color="#232323" stop-opacity="0.0598358"/>
<stop offset="1" stop-opacity="0"/>
</linearGradient>
<linearGradient id="paint9_linear_3970_930" x1="117.275" y1="23.8614" x2="117.193" y2="44.5108" gradientUnits="userSpaceOnUse">
<stop stop-color="white"/>
<stop offset="0.1596" stop-color="#FCFCFC" stop-opacity="0.8404"/>
<stop offset="0.2897" stop-color="#F2F2F2" stop-opacity="0.7103"/>
<stop offset="0.4094" stop-color="#E1E1E1" stop-opacity="0.5906"/>
<stop offset="0.523" stop-color="#C8C8C8" stop-opacity="0.477"/>
<stop offset="0.6322" stop-color="#A9A9A9" stop-opacity="0.3678"/>
<stop offset="0.7381" stop-color="#838383" stop-opacity="0.2619"/>
<stop offset="0.8415" stop-color="#565656" stop-opacity="0.1585"/>
<stop offset="0.9402" stop-color="#232323" stop-opacity="0.0598358"/>
<stop offset="1" stop-opacity="0"/>
</linearGradient>
<linearGradient id="paint10_linear_3970_930" x1="117.275" y1="23.8614" x2="117.193" y2="44.5108" gradientUnits="userSpaceOnUse">
<stop stop-color="white"/>
<stop offset="0.1596" stop-color="#FCFCFC" stop-opacity="0.8404"/>
<stop offset="0.2897" stop-color="#F2F2F2" stop-opacity="0.7103"/>
<stop offset="0.4094" stop-color="#E1E1E1" stop-opacity="0.5906"/>
<stop offset="0.523" stop-color="#C8C8C8" stop-opacity="0.477"/>
<stop offset="0.6322" stop-color="#A9A9A9" stop-opacity="0.3678"/>
<stop offset="0.7381" stop-color="#838383" stop-opacity="0.2619"/>
<stop offset="0.8415" stop-color="#565656" stop-opacity="0.1585"/>
<stop offset="0.9402" stop-color="#232323" stop-opacity="0.0598358"/>
<stop offset="1" stop-opacity="0"/>
</linearGradient>
<linearGradient id="paint11_linear_3970_930" x1="117.275" y1="23.8614" x2="117.193" y2="44.5108" gradientUnits="userSpaceOnUse">
<stop stop-color="white"/>
<stop offset="0.1596" stop-color="#FCFCFC" stop-opacity="0.8404"/>
<stop offset="0.2897" stop-color="#F2F2F2" stop-opacity="0.7103"/>
<stop offset="0.4094" stop-color="#E1E1E1" stop-opacity="0.5906"/>
<stop offset="0.523" stop-color="#C8C8C8" stop-opacity="0.477"/>
<stop offset="0.6322" stop-color="#A9A9A9" stop-opacity="0.3678"/>
<stop offset="0.7381" stop-color="#838383" stop-opacity="0.2619"/>
<stop offset="0.8415" stop-color="#565656" stop-opacity="0.1585"/>
<stop offset="0.9402" stop-color="#232323" stop-opacity="0.0598358"/>
<stop offset="1" stop-opacity="0"/>
</linearGradient>
<linearGradient id="paint12_linear_3970_930" x1="117.275" y1="23.8614" x2="117.193" y2="44.5108" gradientUnits="userSpaceOnUse">
<stop stop-color="white"/>
<stop offset="0.1596" stop-color="#FCFCFC" stop-opacity="0.8404"/>
<stop offset="0.2897" stop-color="#F2F2F2" stop-opacity="0.7103"/>
<stop offset="0.4094" stop-color="#E1E1E1" stop-opacity="0.5906"/>
<stop offset="0.523" stop-color="#C8C8C8" stop-opacity="0.477"/>
<stop offset="0.6322" stop-color="#A9A9A9" stop-opacity="0.3678"/>
<stop offset="0.7381" stop-color="#838383" stop-opacity="0.2619"/>
<stop offset="0.8415" stop-color="#565656" stop-opacity="0.1585"/>
<stop offset="0.9402" stop-color="#232323" stop-opacity="0.0598358"/>
<stop offset="1" stop-opacity="0"/>
</linearGradient>
<linearGradient id="paint13_linear_3970_930" x1="117.275" y1="23.8614" x2="117.193" y2="44.5108" gradientUnits="userSpaceOnUse">
<stop stop-color="white"/>
<stop offset="0.1596" stop-color="#FCFCFC" stop-opacity="0.8404"/>
<stop offset="0.2897" stop-color="#F2F2F2" stop-opacity="0.7103"/>
<stop offset="0.4094" stop-color="#E1E1E1" stop-opacity="0.5906"/>
<stop offset="0.523" stop-color="#C8C8C8" stop-opacity="0.477"/>
<stop offset="0.6322" stop-color="#A9A9A9" stop-opacity="0.3678"/>
<stop offset="0.7381" stop-color="#838383" stop-opacity="0.2619"/>
<stop offset="0.8415" stop-color="#565656" stop-opacity="0.1585"/>
<stop offset="0.9402" stop-color="#232323" stop-opacity="0.0598358"/>
<stop offset="1" stop-opacity="0"/>
</linearGradient>
<linearGradient id="paint14_linear_3970_930" x1="117.275" y1="23.8614" x2="117.193" y2="44.5108" gradientUnits="userSpaceOnUse">
<stop stop-color="white"/>
<stop offset="0.1596" stop-color="#FCFCFC" stop-opacity="0.8404"/>
<stop offset="0.2897" stop-color="#F2F2F2" stop-opacity="0.7103"/>
<stop offset="0.4094" stop-color="#E1E1E1" stop-opacity="0.5906"/>
<stop offset="0.523" stop-color="#C8C8C8" stop-opacity="0.477"/>
<stop offset="0.6322" stop-color="#A9A9A9" stop-opacity="0.3678"/>
<stop offset="0.7381" stop-color="#838383" stop-opacity="0.2619"/>
<stop offset="0.8415" stop-color="#565656" stop-opacity="0.1585"/>
<stop offset="0.9402" stop-color="#232323" stop-opacity="0.0598358"/>
<stop offset="1" stop-opacity="0"/>
</linearGradient>
<linearGradient id="paint15_linear_3970_930" x1="117.275" y1="23.8614" x2="117.193" y2="44.5108" gradientUnits="userSpaceOnUse">
<stop stop-color="white"/>
<stop offset="0.1596" stop-color="#FCFCFC" stop-opacity="0.8404"/>
<stop offset="0.2897" stop-color="#F2F2F2" stop-opacity="0.7103"/>
<stop offset="0.4094" stop-color="#E1E1E1" stop-opacity="0.5906"/>
<stop offset="0.523" stop-color="#C8C8C8" stop-opacity="0.477"/>
<stop offset="0.6322" stop-color="#A9A9A9" stop-opacity="0.3678"/>
<stop offset="0.7381" stop-color="#838383" stop-opacity="0.2619"/>
<stop offset="0.8415" stop-color="#565656" stop-opacity="0.1585"/>
<stop offset="0.9402" stop-color="#232323" stop-opacity="0.0598358"/>
<stop offset="1" stop-opacity="0"/>
</linearGradient>
<linearGradient id="paint16_linear_3970_930" x1="117.275" y1="23.8614" x2="117.193" y2="44.5108" gradientUnits="userSpaceOnUse">
<stop stop-color="white"/>
<stop offset="0.1596" stop-color="#FCFCFC" stop-opacity="0.8404"/>
<stop offset="0.2897" stop-color="#F2F2F2" stop-opacity="0.7103"/>
<stop offset="0.4094" stop-color="#E1E1E1" stop-opacity="0.5906"/>
<stop offset="0.523" stop-color="#C8C8C8" stop-opacity="0.477"/>
<stop offset="0.6322" stop-color="#A9A9A9" stop-opacity="0.3678"/>
<stop offset="0.7381" stop-color="#838383" stop-opacity="0.2619"/>
<stop offset="0.8415" stop-color="#565656" stop-opacity="0.1585"/>
<stop offset="0.9402" stop-color="#232323" stop-opacity="0.0598358"/>
<stop offset="1" stop-opacity="0"/>
</linearGradient>
<linearGradient id="paint17_linear_3970_930" x1="117.275" y1="23.8614" x2="117.193" y2="44.5108" gradientUnits="userSpaceOnUse">
<stop stop-color="white"/>
<stop offset="0.1596" stop-color="#FCFCFC" stop-opacity="0.8404"/>
<stop offset="0.2897" stop-color="#F2F2F2" stop-opacity="0.7103"/>
<stop offset="0.4094" stop-color="#E1E1E1" stop-opacity="0.5906"/>
<stop offset="0.523" stop-color="#C8C8C8" stop-opacity="0.477"/>
<stop offset="0.6322" stop-color="#A9A9A9" stop-opacity="0.3678"/>
<stop offset="0.7381" stop-color="#838383" stop-opacity="0.2619"/>
<stop offset="0.8415" stop-color="#565656" stop-opacity="0.1585"/>
<stop offset="0.9402" stop-color="#232323" stop-opacity="0.0598358"/>
<stop offset="1" stop-opacity="0"/>
</linearGradient>
<linearGradient id="paint18_linear_3970_930" x1="117.275" y1="23.8614" x2="117.193" y2="44.5108" gradientUnits="userSpaceOnUse">
<stop stop-color="white"/>
<stop offset="0.1596" stop-color="#FCFCFC" stop-opacity="0.8404"/>
<stop offset="0.2897" stop-color="#F2F2F2" stop-opacity="0.7103"/>
<stop offset="0.4094" stop-color="#E1E1E1" stop-opacity="0.5906"/>
<stop offset="0.523" stop-color="#C8C8C8" stop-opacity="0.477"/>
<stop offset="0.6322" stop-color="#A9A9A9" stop-opacity="0.3678"/>
<stop offset="0.7381" stop-color="#838383" stop-opacity="0.2619"/>
<stop offset="0.8415" stop-color="#565656" stop-opacity="0.1585"/>
<stop offset="0.9402" stop-color="#232323" stop-opacity="0.0598358"/>
<stop offset="1" stop-opacity="0"/>
</linearGradient>
</defs>
</svg>
