<svg width="53" height="63" viewBox="0 0 53 63" fill="none" xmlns="http://www.w3.org/2000/svg">
<g id="mark">
<path id="Vector" fill-rule="evenodd" clip-rule="evenodd" d="M26.3068 62.2018C30.7841 62.2018 36.9752 60.6988 40.3814 57.9291C41.2383 57.0702 41.881 56.6408 41.881 55.3525C41.881 53.4201 40.5956 52.1533 38.6676 52.1533C38.0249 52.1533 37.5965 52.3681 36.9538 52.7975C33.7618 54.5152 30.9769 55.9967 26.9281 55.9967C13.2819 55.9967 6.2339 43.6078 6.2339 31.1975C6.2339 24.1335 8.16192 17.091 13.2819 11.9594C17.3308 7.90137 22.0223 6.18368 27.785 6.18368C34.4045 6.18368 38.2391 8.52403 43.5734 12.1741C44.216 12.6035 44.8587 12.8183 45.48 12.8183C47.1938 12.8183 48.6933 11.53 48.6933 9.61906C48.6933 8.76022 48.2649 7.90137 47.6222 7.27871C41.6453 2.76977 34.833 0 27.3565 0C20.1157 0 13.9246 2.57653 8.8046 7.47195C2.63491 13.6771 0.064209 22.2226 0.064209 30.9828C0.064209 39.9578 2.63491 48.5033 8.8046 54.7084C13.4961 59.1959 19.9015 62.2018 26.3068 62.2018Z" fill="url(#paint0_linear_3970_925)"/>
<path id="Vector (Stroke)" fill-rule="evenodd" clip-rule="evenodd" d="M37.3951 53.5348L37.3591 53.5542C34.1715 55.2696 31.2148 56.8555 26.9281 56.8555C19.8117 56.8555 14.3926 53.6114 10.7774 48.7653C7.17932 43.9421 5.37699 37.5525 5.37699 31.1975C5.37699 23.9896 7.34452 16.6957 12.676 11.3521C16.9037 7.11485 21.822 5.32484 27.785 5.32484C34.6761 5.32484 38.6939 7.79547 44.0524 11.462C44.5844 11.8166 45.0632 11.9594 45.48 11.9594C46.7625 11.9594 47.8364 11.0147 47.8364 9.61906C47.8364 9.05179 47.5515 8.4216 47.0621 7.93119C41.2125 3.53004 34.5919 0.858845 27.3565 0.858845C20.3446 0.858845 14.3666 3.34427 9.40393 8.08588C3.44222 14.0868 0.92111 22.3852 0.92111 30.9828C0.92111 39.798 3.44381 48.0952 9.40395 54.0945C13.9649 58.4537 20.163 61.343 26.3068 61.343C28.4595 61.343 31.0477 60.9802 33.5114 60.278C35.9664 59.5784 38.2298 58.561 39.808 57.2893C39.9416 57.1559 40.0585 57.0426 40.1622 56.9422C40.4271 56.6856 40.6057 56.5125 40.7552 56.3027C40.9153 56.078 41.0241 55.8245 41.0241 55.3525C41.0241 54.582 40.7718 54.0133 40.3943 53.6385C40.0158 53.2628 39.441 53.0122 38.6676 53.0122C38.2825 53.0122 38.0291 53.1112 37.4291 53.5121L37.3951 53.5348ZM40.3814 57.9291C36.9752 60.6988 30.7841 62.2018 26.3068 62.2018C19.9015 62.2018 13.4961 59.1959 8.8046 54.7084C2.63491 48.5033 0.064209 39.9578 0.064209 30.9828C0.064209 22.2226 2.63491 13.6771 8.8046 7.47195C13.9246 2.57653 20.1157 0 27.3565 0C34.833 0 41.6453 2.76977 47.6222 7.27871C48.2649 7.90137 48.6933 8.76022 48.6933 9.61906C48.6933 11.53 47.1938 12.8183 45.48 12.8183C44.8587 12.8183 44.216 12.6035 43.5734 12.1741C38.2391 8.52403 34.4045 6.18368 27.785 6.18368C22.0223 6.18368 17.3308 7.90137 13.2819 11.9594C8.16192 17.091 6.2339 24.1335 6.2339 31.1975C6.2339 43.6078 13.2819 55.9967 26.9281 55.9967C30.9769 55.9967 33.7618 54.5152 36.9538 52.7975C37.5965 52.3681 38.0249 52.1533 38.6676 52.1533C40.5956 52.1533 41.881 53.4201 41.881 55.3525C41.881 56.4729 41.3949 56.9437 40.7045 57.6124C40.6011 57.7125 40.4931 57.8172 40.3814 57.9291Z" fill="url(#paint1_linear_3970_925)"/>
<path id="Vector_2" fill-rule="evenodd" clip-rule="evenodd" d="M49.122 62.2018C50.8143 62.2018 52.3139 60.9135 52.3139 59.0026V31.1975C52.3139 29.4798 50.8143 27.9983 49.122 27.9983H34.6189C32.9051 27.9983 31.4055 29.5013 31.4055 31.1975C31.4055 32.9152 32.9051 34.3967 34.6189 34.3967H45.9086V58.9811C45.9086 60.9135 47.4081 62.2018 49.122 62.2018Z" fill="url(#paint2_linear_3970_925)"/>
<path id="Vector (Stroke)_2" fill-rule="evenodd" clip-rule="evenodd" d="M46.7655 33.5378V58.9811C46.7655 60.402 47.8434 61.3429 49.122 61.3429C50.3793 61.3429 51.457 60.4018 51.457 59.0026V31.1975C51.457 29.9578 50.3448 28.8571 49.122 28.8571H34.6189C33.3747 28.8571 32.2624 29.9793 32.2624 31.1975C32.2624 32.4335 33.371 33.5378 34.6189 33.5378H46.7655ZM52.3139 59.0026C52.3139 60.9135 50.8143 62.2018 49.122 62.2018C47.4081 62.2018 45.9086 60.9135 45.9086 58.9811V34.3967H34.6189C32.9051 34.3967 31.4055 32.9152 31.4055 31.1975C31.4055 29.5013 32.9051 27.9983 34.6189 27.9983H49.122C50.8143 27.9983 52.3139 29.4798 52.3139 31.1975V59.0026Z" fill="url(#paint3_linear_3970_925)"/>
</g>
<defs>
<linearGradient id="paint0_linear_3970_925" x1="0.064209" y1="31.0975" x2="48.6906" y2="31.0975" gradientUnits="userSpaceOnUse">
<stop stop-color="#FFEDC2"/>
<stop offset="0.1767" stop-color="#F7EFA6"/>
<stop offset="0.3763" stop-color="#F3D16E"/>
<stop offset="0.4657" stop-color="#EEC65E"/>
<stop offset="0.5676" stop-color="#E4B650"/>
<stop offset="0.6237" stop-color="#AF7121"/>
<stop offset="0.6528" stop-color="#AF7121"/>
<stop offset="0.7152" stop-color="#F2D76C"/>
<stop offset="0.7921" stop-color="#F8E77D"/>
<stop offset="0.8441" stop-color="#F7F1A4"/>
<stop offset="0.8919" stop-color="#FFF2C5"/>
<stop offset="0.9376" stop-color="#E6AD06"/>
<stop offset="0.9439" stop-color="#E6AD06"/>
<stop offset="1" stop-color="#FBCB4A"/>
</linearGradient>
<linearGradient id="paint1_linear_3970_925" x1="-13.8604" y1="-24.6918" x2="50.1719" y2="65.7796" gradientUnits="userSpaceOnUse">
<stop stop-color="#FFEDC2"/>
<stop offset="0.1767" stop-color="#F7EFA6"/>
<stop offset="0.3763" stop-color="#F3D16E"/>
<stop offset="0.4657" stop-color="#EEC65E"/>
<stop offset="0.5676" stop-color="#E4B650"/>
<stop offset="0.6237" stop-color="#AF7121"/>
<stop offset="0.6528" stop-color="#AF7121"/>
<stop offset="0.7152" stop-color="#F2D76C"/>
<stop offset="0.7921" stop-color="#F8E77D"/>
<stop offset="0.8441" stop-color="#F7F1A4"/>
<stop offset="0.8919" stop-color="#FFF2C5"/>
<stop offset="0.9376" stop-color="#E6AD06"/>
<stop offset="0.9439" stop-color="#E6AD06"/>
<stop offset="1" stop-color="#FBCB4A"/>
</linearGradient>
<linearGradient id="paint2_linear_3970_925" x1="60.3507" y1="30.8547" x2="39.3212" y2="47.0194" gradientUnits="userSpaceOnUse">
<stop stop-color="white"/>
<stop offset="0.1596" stop-color="#FCFCFC" stop-opacity="0.8404"/>
<stop offset="0.2897" stop-color="#F2F2F2" stop-opacity="0.7103"/>
<stop offset="0.4094" stop-color="#E1E1E1" stop-opacity="0.5906"/>
<stop offset="0.523" stop-color="#C8C8C8" stop-opacity="0.477"/>
<stop offset="0.6322" stop-color="#A9A9A9" stop-opacity="0.3678"/>
<stop offset="0.7381" stop-color="#838383" stop-opacity="0.2619"/>
<stop offset="0.8415" stop-color="#565656" stop-opacity="0.1585"/>
<stop offset="0.9402" stop-color="#232323" stop-opacity="0.0598358"/>
<stop offset="1" stop-opacity="0"/>
</linearGradient>
<linearGradient id="paint3_linear_3970_925" x1="72.0441" y1="-26.1948" x2="16.7986" y2="71.6064" gradientUnits="userSpaceOnUse">
<stop stop-color="white"/>
<stop offset="0.1596" stop-color="#FCFCFC" stop-opacity="0.8404"/>
<stop offset="0.2897" stop-color="#F2F2F2" stop-opacity="0.7103"/>
<stop offset="0.4094" stop-color="#E1E1E1" stop-opacity="0.5906"/>
<stop offset="0.523" stop-color="#C8C8C8" stop-opacity="0.477"/>
<stop offset="0.6322" stop-color="#A9A9A9" stop-opacity="0.3678"/>
<stop offset="0.7381" stop-color="#838383" stop-opacity="0.2619"/>
<stop offset="0.8415" stop-color="#565656" stop-opacity="0.1585"/>
<stop offset="0.9402" stop-color="#232323" stop-opacity="0.0598358"/>
<stop offset="1" stop-opacity="0"/>
</linearGradient>
</defs>
</svg>
