<svg width="113" height="113" viewBox="0 0 113 113" fill="none" xmlns="http://www.w3.org/2000/svg">
<path fill-rule="evenodd" clip-rule="evenodd" d="M56.3068 62.2018C60.7841 62.2018 66.9752 60.6988 70.3814 57.9291C71.2383 57.0702 71.881 56.6408 71.881 55.3525C71.881 53.4201 70.5956 52.1533 68.6676 52.1533C68.0249 52.1533 67.5965 52.3681 66.9538 52.7975C63.7618 54.5152 60.9769 55.9967 56.9281 55.9967C43.2819 55.9967 36.2339 43.6078 36.2339 31.1975C36.2339 24.1335 38.1619 17.091 43.2819 11.9594C47.3308 7.90137 52.0223 6.18368 57.785 6.18368C64.4045 6.18368 68.2391 8.52403 73.5734 12.1741C74.216 12.6035 74.8587 12.8183 75.48 12.8183C77.1938 12.8183 78.6933 11.53 78.6933 9.61906C78.6933 8.76022 78.2649 7.90137 77.6222 7.27871C71.6453 2.76977 64.833 0 57.3565 0C50.1157 0 43.9246 2.57653 38.8046 7.47195C32.6349 13.6771 30.0642 22.2226 30.0642 30.9828C30.0642 39.9578 32.6349 48.5033 38.8046 54.7084C43.4961 59.1959 49.9015 62.2018 56.3068 62.2018Z" fill="url(#paint0_linear_2575_3791)"/>
<path fill-rule="evenodd" clip-rule="evenodd" d="M67.3951 53.5348L67.3591 53.5542C64.1715 55.2696 61.2148 56.8555 56.9281 56.8555C49.8117 56.8555 44.3926 53.6114 40.7774 48.7653C37.1793 43.9421 35.377 37.5525 35.377 31.1975C35.377 23.9896 37.3445 16.6957 42.676 11.3521C46.9037 7.11485 51.822 5.32484 57.785 5.32484C64.6761 5.32484 68.6939 7.79547 74.0524 11.462C74.5844 11.8166 75.0632 11.9594 75.48 11.9594C76.7625 11.9594 77.8364 11.0147 77.8364 9.61906C77.8364 9.05179 77.5515 8.4216 77.0621 7.93119C71.2125 3.53004 64.5919 0.858845 57.3565 0.858845C50.3446 0.858845 44.3666 3.34427 39.4039 8.08588C33.4422 14.0868 30.9211 22.3852 30.9211 30.9828C30.9211 39.798 33.4438 48.0952 39.404 54.0945C43.9649 58.4537 50.163 61.343 56.3068 61.343C58.4595 61.343 61.0477 60.9802 63.5114 60.278C65.9664 59.5784 68.2298 58.561 69.808 57.2893C69.9416 57.1559 70.0585 57.0426 70.1622 56.9422C70.4271 56.6856 70.6057 56.5125 70.7552 56.3027C70.9153 56.078 71.0241 55.8245 71.0241 55.3525C71.0241 54.582 70.7718 54.0133 70.3943 53.6385C70.0158 53.2628 69.441 53.0122 68.6676 53.0122C68.2825 53.0122 68.0291 53.1112 67.4291 53.5121L67.3951 53.5348ZM70.3814 57.9291C66.9752 60.6988 60.7841 62.2018 56.3068 62.2018C49.9015 62.2018 43.4961 59.1959 38.8046 54.7084C32.6349 48.5033 30.0642 39.9578 30.0642 30.9828C30.0642 22.2226 32.6349 13.6771 38.8046 7.47195C43.9246 2.57653 50.1157 0 57.3565 0C64.833 0 71.6453 2.76977 77.6222 7.27871C78.2649 7.90137 78.6933 8.76022 78.6933 9.61906C78.6933 11.53 77.1938 12.8183 75.48 12.8183C74.8587 12.8183 74.216 12.6035 73.5734 12.1741C68.2391 8.52403 64.4045 6.18368 57.785 6.18368C52.0223 6.18368 47.3308 7.90137 43.2819 11.9594C38.1619 17.091 36.2339 24.1335 36.2339 31.1975C36.2339 43.6078 43.2819 55.9967 56.9281 55.9967C60.9769 55.9967 63.7618 54.5152 66.9538 52.7975C67.5965 52.3681 68.0249 52.1533 68.6676 52.1533C70.5956 52.1533 71.881 53.4201 71.881 55.3525C71.881 56.4729 71.3949 56.9437 70.7045 57.6124C70.6011 57.7125 70.4931 57.8172 70.3814 57.9291Z" fill="url(#paint1_linear_2575_3791)"/>
<path fill-rule="evenodd" clip-rule="evenodd" d="M79.122 62.2018C80.8143 62.2018 82.3139 60.9135 82.3139 59.0026V31.1975C82.3139 29.4798 80.8143 27.9983 79.122 27.9983H64.6189C62.9051 27.9983 61.4055 29.5013 61.4055 31.1975C61.4055 32.9152 62.9051 34.3967 64.6189 34.3967H75.9086V58.9811C75.9086 60.9135 77.4081 62.2018 79.122 62.2018Z" fill="url(#paint2_linear_2575_3791)"/>
<path fill-rule="evenodd" clip-rule="evenodd" d="M76.7655 33.5378V58.9811C76.7655 60.402 77.8434 61.3429 79.122 61.3429C80.3793 61.3429 81.457 60.4018 81.457 59.0026V31.1975C81.457 29.9578 80.3448 28.8571 79.122 28.8571H64.6189C63.3747 28.8571 62.2624 29.9793 62.2624 31.1975C62.2624 32.4335 63.371 33.5378 64.6189 33.5378H76.7655ZM82.3139 59.0026C82.3139 60.9135 80.8143 62.2018 79.122 62.2018C77.4081 62.2018 75.9086 60.9135 75.9086 58.9811V34.3967H64.6189C62.9051 34.3967 61.4055 32.9152 61.4055 31.1975C61.4055 29.5013 62.9051 27.9983 64.6189 27.9983H79.122C80.8143 27.9983 82.3139 29.4798 82.3139 31.1975V59.0026Z" fill="url(#paint3_linear_2575_3791)"/>
<path d="M22.5867 83.3815H25.8523V88.793C25.1058 89.328 24.2475 89.7385 23.2771 90.0246C22.3068 90.3107 21.3364 90.4538 20.3661 90.4538C18.9976 90.4538 17.766 90.1677 16.6713 89.5954C15.5765 89.0107 14.7181 88.2021 14.0961 87.1696C13.4741 86.137 13.1631 84.9676 13.1631 83.6614C13.1631 82.3551 13.4741 81.1857 14.0961 80.1532C14.7181 79.1206 15.5827 78.3182 16.6899 77.746C17.7971 77.1613 19.0474 76.8689 20.4407 76.8689C21.6599 76.8689 22.7546 77.0742 23.725 77.4847C24.6953 77.8953 25.5039 78.4862 26.1508 79.2575L23.7996 81.3848C22.9163 80.4144 21.8589 79.9293 20.6273 79.9293C19.5077 79.9293 18.6057 80.2714 17.9215 80.9556C17.2373 81.6274 16.8952 82.5293 16.8952 83.6614C16.8952 84.3829 17.0507 85.0298 17.3617 85.6021C17.6727 86.1619 18.1081 86.6035 18.6679 86.927C19.2278 87.238 19.8684 87.3935 20.59 87.3935C21.2991 87.3935 21.9646 87.2504 22.5867 86.9643V83.3815Z" fill="url(#paint4_linear_2575_3791)"/>
<path d="M33.1025 90.3605C32.0202 90.3605 31.0436 90.1366 30.1728 89.6887C29.3019 89.2409 28.6177 88.6189 28.1201 87.8227C27.6349 87.0265 27.3923 86.1246 27.3923 85.1169C27.3923 84.1217 27.6349 83.226 28.1201 82.4298C28.6177 81.6336 29.2957 81.0178 30.1541 80.5824C31.0249 80.1345 32.0077 79.9106 33.1025 79.9106C34.1972 79.9106 35.18 80.1345 36.0508 80.5824C36.9217 81.0178 37.5997 81.6336 38.0848 82.4298C38.57 83.2135 38.8126 84.1092 38.8126 85.1169C38.8126 86.1246 38.57 87.0265 38.0848 87.8227C37.5997 88.6189 36.9217 89.2409 36.0508 89.6887C35.18 90.1366 34.1972 90.3605 33.1025 90.3605ZM33.1025 87.5428C33.7245 87.5428 34.2345 87.3313 34.6326 86.9083C35.0307 86.4729 35.2298 85.8758 35.2298 85.1169C35.2298 84.3705 35.0307 83.7858 34.6326 83.3628C34.2345 82.9398 33.7245 82.7283 33.1025 82.7283C32.4804 82.7283 31.9704 82.9398 31.5723 83.3628C31.1742 83.7858 30.9752 84.3705 30.9752 85.1169C30.9752 85.8758 31.1742 86.4729 31.5723 86.9083C31.9704 87.3313 32.4804 87.5428 33.1025 87.5428Z" fill="url(#paint5_linear_2575_3791)"/>
<path d="M40.455 76.3464H44.0005V90.1926H40.455V76.3464Z" fill="url(#paint6_linear_2575_3791)"/>
<path d="M57.0531 76.3464V90.1926H53.6756V89.1849C53.0162 89.9686 52.0272 90.3605 50.7086 90.3605C49.788 90.3605 48.9482 90.149 48.1894 89.726C47.4305 89.2906 46.8272 88.6748 46.3793 87.8787C45.9439 87.0825 45.7262 86.1619 45.7262 85.1169C45.7262 84.0719 45.9439 83.1575 46.3793 82.3738C46.8272 81.5776 47.4305 80.968 48.1894 80.5451C48.9482 80.1221 49.788 79.9106 50.7086 79.9106C51.9153 79.9106 52.8483 80.2589 53.5076 80.9556V76.3464H57.0531ZM51.455 87.5428C52.0646 87.5428 52.5684 87.3313 52.9665 86.9083C53.3646 86.4729 53.5636 85.8758 53.5636 85.1169C53.5636 84.3705 53.3646 83.7858 52.9665 83.3628C52.5808 82.9398 52.077 82.7283 51.455 82.7283C50.833 82.7283 50.3229 82.9398 49.9248 83.3628C49.5267 83.7858 49.3277 84.3705 49.3277 85.1169C49.3277 85.8758 49.5267 86.4729 49.9248 86.9083C50.3229 87.3313 50.833 87.5428 51.455 87.5428Z" fill="url(#paint7_linear_2575_3791)"/>
<path d="M76.0914 80.0785L72.4899 90.1926H69.0564L67.153 84.6877L65.175 90.1926H61.7415L58.14 80.0785H61.4989L63.5702 86.1992L65.7162 80.0785H68.7392L70.8291 86.2552L72.9751 80.0785H76.0914Z" fill="url(#paint8_linear_2575_3791)"/>
<path d="M87.2393 85.1542C87.2393 85.1791 87.2207 85.4714 87.1834 86.0313H79.8311C79.9804 86.5538 80.2665 86.9581 80.6895 87.2442C81.1249 87.5179 81.6661 87.6547 82.313 87.6547C82.7981 87.6547 83.2149 87.5863 83.5632 87.4495C83.924 87.3126 84.2848 87.0887 84.6455 86.7777L86.5116 88.7184C85.5288 89.8131 84.0919 90.3605 82.201 90.3605C81.0192 90.3605 79.9804 90.1366 79.0847 89.6887C78.189 89.2409 77.4923 88.6189 76.9947 87.8227C76.5095 87.0265 76.2669 86.1246 76.2669 85.1169C76.2669 84.1217 76.5033 83.2322 76.976 82.4484C77.4612 81.6523 78.1268 81.0302 78.9727 80.5824C79.8187 80.1345 80.7704 79.9106 81.8278 79.9106C82.8355 79.9106 83.7498 80.1221 84.5709 80.5451C85.392 80.9556 86.0389 81.5589 86.5116 82.3551C86.9968 83.1389 87.2393 84.0719 87.2393 85.1542ZM81.8465 82.4298C81.2991 82.4298 80.8388 82.5853 80.4656 82.8963C80.1048 83.2073 79.8747 83.6303 79.7751 84.1652H83.9178C83.8182 83.6303 83.5819 83.2073 83.2087 82.8963C82.8479 82.5853 82.3938 82.4298 81.8465 82.4298Z" fill="url(#paint9_linear_2575_3791)"/>
<path d="M88.874 76.3464H92.4195V90.1926H88.874V76.3464Z" fill="url(#paint10_linear_2575_3791)"/>
<path d="M94.7237 76.3464H98.2692V90.1926H94.7237V76.3464Z" fill="url(#paint11_linear_2575_3791)"/>
<path d="M22.378 109.376L20.138 106.226C19.886 106.254 19.6247 106.268 19.354 106.268H16.722V109.376H15.686V99.576H19.354C20.6047 99.576 21.5847 99.8747 22.294 100.472C23.0034 101.069 23.358 101.891 23.358 102.936C23.358 103.701 23.162 104.35 22.77 104.882C22.3874 105.405 21.8367 105.783 21.118 106.016L23.512 109.376H22.378ZM19.326 105.386C20.2967 105.386 21.0387 105.171 21.552 104.742C22.0654 104.313 22.322 103.711 22.322 102.936C22.322 102.143 22.0654 101.536 21.552 101.116C21.0387 100.687 20.2967 100.472 19.326 100.472H16.722V105.386H19.326Z" fill="url(#paint12_linear_2575_3791)"/>
<path d="M32.0052 106.002H25.8452C25.9012 106.767 26.1952 107.388 26.7272 107.864C27.2592 108.331 27.9312 108.564 28.7432 108.564C29.2006 108.564 29.6206 108.485 30.0032 108.326C30.3859 108.158 30.7172 107.915 30.9972 107.598L31.5572 108.242C31.2306 108.634 30.8199 108.933 30.3252 109.138C29.8399 109.343 29.3032 109.446 28.7152 109.446C27.9592 109.446 27.2872 109.287 26.6992 108.97C26.1206 108.643 25.6679 108.195 25.3412 107.626C25.0146 107.057 24.8512 106.413 24.8512 105.694C24.8512 104.975 25.0052 104.331 25.3132 103.762C25.6306 103.193 26.0599 102.749 26.6012 102.432C27.1519 102.115 27.7679 101.956 28.4492 101.956C29.1306 101.956 29.7419 102.115 30.2832 102.432C30.8246 102.749 31.2492 103.193 31.5572 103.762C31.8652 104.322 32.0192 104.966 32.0192 105.694L32.0052 106.002ZM28.4492 102.81C27.7399 102.81 27.1426 103.039 26.6572 103.496C26.1812 103.944 25.9106 104.532 25.8452 105.26H31.0672C31.0019 104.532 30.7266 103.944 30.2412 103.496C29.7652 103.039 29.1679 102.81 28.4492 102.81Z" fill="url(#paint13_linear_2575_3791)"/>
<path d="M36.4134 101.956C37.3747 101.956 38.112 102.199 38.6254 102.684C39.1387 103.16 39.3954 103.869 39.3954 104.812V109.376H38.4434V108.228C38.2194 108.611 37.888 108.909 37.4494 109.124C37.02 109.339 36.5067 109.446 35.9094 109.446C35.088 109.446 34.4347 109.25 33.9494 108.858C33.464 108.466 33.2214 107.948 33.2214 107.304C33.2214 106.679 33.4454 106.175 33.8934 105.792C34.3507 105.409 35.074 105.218 36.0634 105.218H38.4014V104.77C38.4014 104.135 38.224 103.655 37.8694 103.328C37.5147 102.992 36.9967 102.824 36.3154 102.824C35.8487 102.824 35.4007 102.903 34.9714 103.062C34.542 103.211 34.1734 103.421 33.8654 103.692L33.4174 102.95C33.7907 102.633 34.2387 102.39 34.7614 102.222C35.284 102.045 35.8347 101.956 36.4134 101.956ZM36.0634 108.662C36.6234 108.662 37.104 108.536 37.5054 108.284C37.9067 108.023 38.2054 107.649 38.4014 107.164V105.96H36.0914C34.8314 105.96 34.2014 106.399 34.2014 107.276C34.2014 107.705 34.3647 108.046 34.6914 108.298C35.018 108.541 35.4754 108.662 36.0634 108.662Z" fill="url(#paint14_linear_2575_3791)"/>
<path d="M42.0952 98.988H43.0892V109.376H42.0952V98.988Z" fill="url(#paint15_linear_2575_3791)"/>
<path d="M56.659 108.48V109.376H49.729V99.576H56.449V100.472H50.765V103.958H55.833V104.84H50.765V108.48H56.659Z" fill="url(#paint16_linear_2575_3791)"/>
<path d="M60.7489 109.446C60.1515 109.446 59.5775 109.362 59.0269 109.194C58.4855 109.017 58.0609 108.797 57.7529 108.536L58.2009 107.752C58.5089 107.995 58.8962 108.195 59.3629 108.354C59.8295 108.503 60.3149 108.578 60.8189 108.578C61.4909 108.578 61.9855 108.475 62.3029 108.27C62.6295 108.055 62.7929 107.757 62.7929 107.374C62.7929 107.103 62.7042 106.893 62.5269 106.744C62.3495 106.585 62.1255 106.469 61.8549 106.394C61.5842 106.31 61.2249 106.231 60.7769 106.156C60.1795 106.044 59.6989 105.932 59.3349 105.82C58.9709 105.699 58.6582 105.498 58.3969 105.218C58.1449 104.938 58.0189 104.551 58.0189 104.056C58.0189 103.44 58.2755 102.936 58.7889 102.544C59.3022 102.152 60.0162 101.956 60.9309 101.956C61.4069 101.956 61.8829 102.021 62.3589 102.152C62.8349 102.273 63.2269 102.437 63.5349 102.642L63.1009 103.44C62.4942 103.02 61.7709 102.81 60.9309 102.81C60.2962 102.81 59.8155 102.922 59.4889 103.146C59.1715 103.37 59.0129 103.664 59.0129 104.028C59.0129 104.308 59.1015 104.532 59.2789 104.7C59.4655 104.868 59.6942 104.994 59.9649 105.078C60.2355 105.153 60.6089 105.232 61.0849 105.316C61.6729 105.428 62.1442 105.54 62.4989 105.652C62.8535 105.764 63.1569 105.955 63.4089 106.226C63.6609 106.497 63.7869 106.87 63.7869 107.346C63.7869 107.99 63.5162 108.503 62.9749 108.886C62.4429 109.259 61.7009 109.446 60.7489 109.446Z" fill="url(#paint17_linear_2575_3791)"/>
<path d="M69.5025 108.928C69.3158 109.096 69.0825 109.227 68.8025 109.32C68.5318 109.404 68.2471 109.446 67.9485 109.446C67.2578 109.446 66.7258 109.259 66.3525 108.886C65.9791 108.513 65.7925 107.985 65.7925 107.304V102.852H64.4765V102.012H65.7925V100.402H66.7865V102.012H69.0265V102.852H66.7865V107.248C66.7865 107.687 66.8938 108.023 67.1085 108.256C67.3325 108.48 67.6498 108.592 68.0605 108.592C68.2658 108.592 68.4618 108.559 68.6485 108.494C68.8445 108.429 69.0125 108.335 69.1525 108.214L69.5025 108.928Z" fill="url(#paint18_linear_2575_3791)"/>
<path d="M73.888 101.956C74.8493 101.956 75.5866 102.199 76.1 102.684C76.6133 103.16 76.87 103.869 76.87 104.812V109.376H75.918V108.228C75.694 108.611 75.3626 108.909 74.924 109.124C74.4946 109.339 73.9813 109.446 73.384 109.446C72.5626 109.446 71.9093 109.25 71.424 108.858C70.9386 108.466 70.696 107.948 70.696 107.304C70.696 106.679 70.92 106.175 71.368 105.792C71.8253 105.409 72.5486 105.218 73.538 105.218H75.876V104.77C75.876 104.135 75.6986 103.655 75.344 103.328C74.9893 102.992 74.4713 102.824 73.79 102.824C73.3233 102.824 72.8753 102.903 72.446 103.062C72.0166 103.211 71.648 103.421 71.34 103.692L70.892 102.95C71.2653 102.633 71.7133 102.39 72.236 102.222C72.7586 102.045 73.3093 101.956 73.888 101.956ZM73.538 108.662C74.098 108.662 74.5786 108.536 74.98 108.284C75.3813 108.023 75.68 107.649 75.876 107.164V105.96H73.566C72.306 105.96 71.676 106.399 71.676 107.276C71.676 107.705 71.8393 108.046 72.166 108.298C72.4926 108.541 72.95 108.662 73.538 108.662Z" fill="url(#paint19_linear_2575_3791)"/>
<path d="M83.4478 108.928C83.2611 109.096 83.0278 109.227 82.7478 109.32C82.4771 109.404 82.1925 109.446 81.8938 109.446C81.2031 109.446 80.6711 109.259 80.2978 108.886C79.9244 108.513 79.7378 107.985 79.7378 107.304V102.852H78.4218V102.012H79.7378V100.402H80.7318V102.012H82.9718V102.852H80.7318V107.248C80.7318 107.687 80.8391 108.023 81.0538 108.256C81.2778 108.48 81.5951 108.592 82.0058 108.592C82.2111 108.592 82.4071 108.559 82.5938 108.494C82.7898 108.429 82.9578 108.335 83.0978 108.214L83.4478 108.928Z" fill="url(#paint20_linear_2575_3791)"/>
<path d="M91.4095 106.002H85.2495C85.3055 106.767 85.5995 107.388 86.1315 107.864C86.6635 108.331 87.3355 108.564 88.1475 108.564C88.6049 108.564 89.0248 108.485 89.4075 108.326C89.7902 108.158 90.1215 107.915 90.4015 107.598L90.9615 108.242C90.6348 108.634 90.2242 108.933 89.7295 109.138C89.2442 109.343 88.7075 109.446 88.1195 109.446C87.3635 109.446 86.6915 109.287 86.1035 108.97C85.5248 108.643 85.0722 108.195 84.7455 107.626C84.4189 107.057 84.2555 106.413 84.2555 105.694C84.2555 104.975 84.4095 104.331 84.7175 103.762C85.0349 103.193 85.4642 102.749 86.0055 102.432C86.5562 102.115 87.1722 101.956 87.8535 101.956C88.5349 101.956 89.1462 102.115 89.6875 102.432C90.2289 102.749 90.6535 103.193 90.9615 103.762C91.2695 104.322 91.4235 104.966 91.4235 105.694L91.4095 106.002ZM87.8535 102.81C87.1442 102.81 86.5469 103.039 86.0615 103.496C85.5855 103.944 85.3148 104.532 85.2495 105.26H90.4715C90.4062 104.532 90.1309 103.944 89.6455 103.496C89.1695 103.039 88.5722 102.81 87.8535 102.81Z" fill="url(#paint21_linear_2575_3791)"/>
<path d="M95.4207 109.446C94.8234 109.446 94.2494 109.362 93.6987 109.194C93.1574 109.017 92.7327 108.797 92.4247 108.536L92.8727 107.752C93.1807 107.995 93.5681 108.195 94.0347 108.354C94.5014 108.503 94.9867 108.578 95.4907 108.578C96.1627 108.578 96.6574 108.475 96.9747 108.27C97.3014 108.055 97.4647 107.757 97.4647 107.374C97.4647 107.103 97.3761 106.893 97.1987 106.744C97.0214 106.585 96.7974 106.469 96.5267 106.394C96.2561 106.31 95.8967 106.231 95.4487 106.156C94.8514 106.044 94.3707 105.932 94.0067 105.82C93.6427 105.699 93.3301 105.498 93.0687 105.218C92.8167 104.938 92.6907 104.551 92.6907 104.056C92.6907 103.44 92.9474 102.936 93.4607 102.544C93.9741 102.152 94.6881 101.956 95.6027 101.956C96.0787 101.956 96.5547 102.021 97.0307 102.152C97.5067 102.273 97.8987 102.437 98.2067 102.642L97.7727 103.44C97.1661 103.02 96.4427 102.81 95.6027 102.81C94.9681 102.81 94.4874 102.922 94.1607 103.146C93.8434 103.37 93.6847 103.664 93.6847 104.028C93.6847 104.308 93.7734 104.532 93.9507 104.7C94.1374 104.868 94.3661 104.994 94.6367 105.078C94.9074 105.153 95.2807 105.232 95.7567 105.316C96.3447 105.428 96.8161 105.54 97.1707 105.652C97.5254 105.764 97.8287 105.955 98.0807 106.226C98.3327 106.497 98.4587 106.87 98.4587 107.346C98.4587 107.99 98.1881 108.503 97.6467 108.886C97.1147 109.259 96.3727 109.446 95.4207 109.446Z" fill="url(#paint22_linear_2575_3791)"/>
<defs>
<linearGradient id="paint0_linear_2575_3791" x1="30.0642" y1="31.0975" x2="78.6906" y2="31.0975" gradientUnits="userSpaceOnUse">
<stop stop-color="#FFEDC2"/>
<stop offset="0.1767" stop-color="#F7EFA6"/>
<stop offset="0.3763" stop-color="#F3D16E"/>
<stop offset="0.4657" stop-color="#EEC65E"/>
<stop offset="0.5676" stop-color="#E4B650"/>
<stop offset="0.6237" stop-color="#AF7121"/>
<stop offset="0.6528" stop-color="#AF7121"/>
<stop offset="0.7152" stop-color="#F2D76C"/>
<stop offset="0.7921" stop-color="#F8E77D"/>
<stop offset="0.8441" stop-color="#F7F1A4"/>
<stop offset="0.8919" stop-color="#FFF2C5"/>
<stop offset="0.9376" stop-color="#E6AD06"/>
<stop offset="0.9439" stop-color="#E6AD06"/>
<stop offset="1" stop-color="#FBCB4A"/>
</linearGradient>
<linearGradient id="paint1_linear_2575_3791" x1="16.1396" y1="-24.6918" x2="80.1719" y2="65.7796" gradientUnits="userSpaceOnUse">
<stop stop-color="#FFEDC2"/>
<stop offset="0.1767" stop-color="#F7EFA6"/>
<stop offset="0.3763" stop-color="#F3D16E"/>
<stop offset="0.4657" stop-color="#EEC65E"/>
<stop offset="0.5676" stop-color="#E4B650"/>
<stop offset="0.6237" stop-color="#AF7121"/>
<stop offset="0.6528" stop-color="#AF7121"/>
<stop offset="0.7152" stop-color="#F2D76C"/>
<stop offset="0.7921" stop-color="#F8E77D"/>
<stop offset="0.8441" stop-color="#F7F1A4"/>
<stop offset="0.8919" stop-color="#FFF2C5"/>
<stop offset="0.9376" stop-color="#E6AD06"/>
<stop offset="0.9439" stop-color="#E6AD06"/>
<stop offset="1" stop-color="#FBCB4A"/>
</linearGradient>
<linearGradient id="paint2_linear_2575_3791" x1="90.3507" y1="30.8547" x2="69.3212" y2="47.0194" gradientUnits="userSpaceOnUse">
<stop stop-color="white"/>
<stop offset="0.1596" stop-color="#FCFCFC" stop-opacity="0.8404"/>
<stop offset="0.2897" stop-color="#F2F2F2" stop-opacity="0.7103"/>
<stop offset="0.4094" stop-color="#E1E1E1" stop-opacity="0.5906"/>
<stop offset="0.523" stop-color="#C8C8C8" stop-opacity="0.477"/>
<stop offset="0.6322" stop-color="#A9A9A9" stop-opacity="0.3678"/>
<stop offset="0.7381" stop-color="#838383" stop-opacity="0.2619"/>
<stop offset="0.8415" stop-color="#565656" stop-opacity="0.1585"/>
<stop offset="0.9402" stop-color="#232323" stop-opacity="0.0598358"/>
<stop offset="1" stop-opacity="0"/>
</linearGradient>
<linearGradient id="paint3_linear_2575_3791" x1="102.044" y1="-26.1948" x2="46.7986" y2="71.6064" gradientUnits="userSpaceOnUse">
<stop stop-color="white"/>
<stop offset="0.1596" stop-color="#FCFCFC" stop-opacity="0.8404"/>
<stop offset="0.2897" stop-color="#F2F2F2" stop-opacity="0.7103"/>
<stop offset="0.4094" stop-color="#E1E1E1" stop-opacity="0.5906"/>
<stop offset="0.523" stop-color="#C8C8C8" stop-opacity="0.477"/>
<stop offset="0.6322" stop-color="#A9A9A9" stop-opacity="0.3678"/>
<stop offset="0.7381" stop-color="#838383" stop-opacity="0.2619"/>
<stop offset="0.8415" stop-color="#565656" stop-opacity="0.1585"/>
<stop offset="0.9402" stop-color="#232323" stop-opacity="0.0598358"/>
<stop offset="1" stop-opacity="0"/>
</linearGradient>
<linearGradient id="paint4_linear_2575_3791" x1="31.101" y1="-33.1744" x2="74.6423" y2="166.908" gradientUnits="userSpaceOnUse">
<stop stop-color="#FFEDC2"/>
<stop offset="0.1767" stop-color="#F7EFA6"/>
<stop offset="0.3763" stop-color="#F3D16E"/>
<stop offset="0.4657" stop-color="#EEC65E"/>
<stop offset="0.5676" stop-color="#E4B650"/>
<stop offset="0.6237" stop-color="#AF7121"/>
<stop offset="0.6528" stop-color="#AF7121"/>
<stop offset="0.7152" stop-color="#F2D76C"/>
<stop offset="0.7921" stop-color="#F8E77D"/>
<stop offset="0.8441" stop-color="#F7F1A4"/>
<stop offset="0.8919" stop-color="#FFF2C5"/>
<stop offset="0.9376" stop-color="#E6AD06"/>
<stop offset="0.9439" stop-color="#E6AD06"/>
<stop offset="1" stop-color="#FBCB4A"/>
</linearGradient>
<linearGradient id="paint5_linear_2575_3791" x1="31.101" y1="-33.1744" x2="74.6423" y2="166.908" gradientUnits="userSpaceOnUse">
<stop stop-color="#FFEDC2"/>
<stop offset="0.1767" stop-color="#F7EFA6"/>
<stop offset="0.3763" stop-color="#F3D16E"/>
<stop offset="0.4657" stop-color="#EEC65E"/>
<stop offset="0.5676" stop-color="#E4B650"/>
<stop offset="0.6237" stop-color="#AF7121"/>
<stop offset="0.6528" stop-color="#AF7121"/>
<stop offset="0.7152" stop-color="#F2D76C"/>
<stop offset="0.7921" stop-color="#F8E77D"/>
<stop offset="0.8441" stop-color="#F7F1A4"/>
<stop offset="0.8919" stop-color="#FFF2C5"/>
<stop offset="0.9376" stop-color="#E6AD06"/>
<stop offset="0.9439" stop-color="#E6AD06"/>
<stop offset="1" stop-color="#FBCB4A"/>
</linearGradient>
<linearGradient id="paint6_linear_2575_3791" x1="31.101" y1="-33.1744" x2="74.6423" y2="166.908" gradientUnits="userSpaceOnUse">
<stop stop-color="#FFEDC2"/>
<stop offset="0.1767" stop-color="#F7EFA6"/>
<stop offset="0.3763" stop-color="#F3D16E"/>
<stop offset="0.4657" stop-color="#EEC65E"/>
<stop offset="0.5676" stop-color="#E4B650"/>
<stop offset="0.6237" stop-color="#AF7121"/>
<stop offset="0.6528" stop-color="#AF7121"/>
<stop offset="0.7152" stop-color="#F2D76C"/>
<stop offset="0.7921" stop-color="#F8E77D"/>
<stop offset="0.8441" stop-color="#F7F1A4"/>
<stop offset="0.8919" stop-color="#FFF2C5"/>
<stop offset="0.9376" stop-color="#E6AD06"/>
<stop offset="0.9439" stop-color="#E6AD06"/>
<stop offset="1" stop-color="#FBCB4A"/>
</linearGradient>
<linearGradient id="paint7_linear_2575_3791" x1="31.101" y1="-33.1744" x2="74.6423" y2="166.908" gradientUnits="userSpaceOnUse">
<stop stop-color="#FFEDC2"/>
<stop offset="0.1767" stop-color="#F7EFA6"/>
<stop offset="0.3763" stop-color="#F3D16E"/>
<stop offset="0.4657" stop-color="#EEC65E"/>
<stop offset="0.5676" stop-color="#E4B650"/>
<stop offset="0.6237" stop-color="#AF7121"/>
<stop offset="0.6528" stop-color="#AF7121"/>
<stop offset="0.7152" stop-color="#F2D76C"/>
<stop offset="0.7921" stop-color="#F8E77D"/>
<stop offset="0.8441" stop-color="#F7F1A4"/>
<stop offset="0.8919" stop-color="#FFF2C5"/>
<stop offset="0.9376" stop-color="#E6AD06"/>
<stop offset="0.9439" stop-color="#E6AD06"/>
<stop offset="1" stop-color="#FBCB4A"/>
</linearGradient>
<linearGradient id="paint8_linear_2575_3791" x1="31.101" y1="-33.1744" x2="74.6423" y2="166.908" gradientUnits="userSpaceOnUse">
<stop stop-color="#FFEDC2"/>
<stop offset="0.1767" stop-color="#F7EFA6"/>
<stop offset="0.3763" stop-color="#F3D16E"/>
<stop offset="0.4657" stop-color="#EEC65E"/>
<stop offset="0.5676" stop-color="#E4B650"/>
<stop offset="0.6237" stop-color="#AF7121"/>
<stop offset="0.6528" stop-color="#AF7121"/>
<stop offset="0.7152" stop-color="#F2D76C"/>
<stop offset="0.7921" stop-color="#F8E77D"/>
<stop offset="0.8441" stop-color="#F7F1A4"/>
<stop offset="0.8919" stop-color="#FFF2C5"/>
<stop offset="0.9376" stop-color="#E6AD06"/>
<stop offset="0.9439" stop-color="#E6AD06"/>
<stop offset="1" stop-color="#FBCB4A"/>
</linearGradient>
<linearGradient id="paint9_linear_2575_3791" x1="31.101" y1="-33.1744" x2="74.6423" y2="166.908" gradientUnits="userSpaceOnUse">
<stop stop-color="#FFEDC2"/>
<stop offset="0.1767" stop-color="#F7EFA6"/>
<stop offset="0.3763" stop-color="#F3D16E"/>
<stop offset="0.4657" stop-color="#EEC65E"/>
<stop offset="0.5676" stop-color="#E4B650"/>
<stop offset="0.6237" stop-color="#AF7121"/>
<stop offset="0.6528" stop-color="#AF7121"/>
<stop offset="0.7152" stop-color="#F2D76C"/>
<stop offset="0.7921" stop-color="#F8E77D"/>
<stop offset="0.8441" stop-color="#F7F1A4"/>
<stop offset="0.8919" stop-color="#FFF2C5"/>
<stop offset="0.9376" stop-color="#E6AD06"/>
<stop offset="0.9439" stop-color="#E6AD06"/>
<stop offset="1" stop-color="#FBCB4A"/>
</linearGradient>
<linearGradient id="paint10_linear_2575_3791" x1="31.101" y1="-33.1744" x2="74.6423" y2="166.908" gradientUnits="userSpaceOnUse">
<stop stop-color="#FFEDC2"/>
<stop offset="0.1767" stop-color="#F7EFA6"/>
<stop offset="0.3763" stop-color="#F3D16E"/>
<stop offset="0.4657" stop-color="#EEC65E"/>
<stop offset="0.5676" stop-color="#E4B650"/>
<stop offset="0.6237" stop-color="#AF7121"/>
<stop offset="0.6528" stop-color="#AF7121"/>
<stop offset="0.7152" stop-color="#F2D76C"/>
<stop offset="0.7921" stop-color="#F8E77D"/>
<stop offset="0.8441" stop-color="#F7F1A4"/>
<stop offset="0.8919" stop-color="#FFF2C5"/>
<stop offset="0.9376" stop-color="#E6AD06"/>
<stop offset="0.9439" stop-color="#E6AD06"/>
<stop offset="1" stop-color="#FBCB4A"/>
</linearGradient>
<linearGradient id="paint11_linear_2575_3791" x1="31.101" y1="-33.1744" x2="74.6423" y2="166.908" gradientUnits="userSpaceOnUse">
<stop stop-color="#FFEDC2"/>
<stop offset="0.1767" stop-color="#F7EFA6"/>
<stop offset="0.3763" stop-color="#F3D16E"/>
<stop offset="0.4657" stop-color="#EEC65E"/>
<stop offset="0.5676" stop-color="#E4B650"/>
<stop offset="0.6237" stop-color="#AF7121"/>
<stop offset="0.6528" stop-color="#AF7121"/>
<stop offset="0.7152" stop-color="#F2D76C"/>
<stop offset="0.7921" stop-color="#F8E77D"/>
<stop offset="0.8441" stop-color="#F7F1A4"/>
<stop offset="0.8919" stop-color="#FFF2C5"/>
<stop offset="0.9376" stop-color="#E6AD06"/>
<stop offset="0.9439" stop-color="#E6AD06"/>
<stop offset="1" stop-color="#FBCB4A"/>
</linearGradient>
<linearGradient id="paint12_linear_2575_3791" x1="130.275" y1="99.8614" x2="130.193" y2="120.511" gradientUnits="userSpaceOnUse">
<stop stop-color="white"/>
<stop offset="0.1596" stop-color="#FCFCFC" stop-opacity="0.8404"/>
<stop offset="0.2897" stop-color="#F2F2F2" stop-opacity="0.7103"/>
<stop offset="0.4094" stop-color="#E1E1E1" stop-opacity="0.5906"/>
<stop offset="0.523" stop-color="#C8C8C8" stop-opacity="0.477"/>
<stop offset="0.6322" stop-color="#A9A9A9" stop-opacity="0.3678"/>
<stop offset="0.7381" stop-color="#838383" stop-opacity="0.2619"/>
<stop offset="0.8415" stop-color="#565656" stop-opacity="0.1585"/>
<stop offset="0.9402" stop-color="#232323" stop-opacity="0.0598358"/>
<stop offset="1" stop-opacity="0"/>
</linearGradient>
<linearGradient id="paint13_linear_2575_3791" x1="130.275" y1="99.8614" x2="130.193" y2="120.511" gradientUnits="userSpaceOnUse">
<stop stop-color="white"/>
<stop offset="0.1596" stop-color="#FCFCFC" stop-opacity="0.8404"/>
<stop offset="0.2897" stop-color="#F2F2F2" stop-opacity="0.7103"/>
<stop offset="0.4094" stop-color="#E1E1E1" stop-opacity="0.5906"/>
<stop offset="0.523" stop-color="#C8C8C8" stop-opacity="0.477"/>
<stop offset="0.6322" stop-color="#A9A9A9" stop-opacity="0.3678"/>
<stop offset="0.7381" stop-color="#838383" stop-opacity="0.2619"/>
<stop offset="0.8415" stop-color="#565656" stop-opacity="0.1585"/>
<stop offset="0.9402" stop-color="#232323" stop-opacity="0.0598358"/>
<stop offset="1" stop-opacity="0"/>
</linearGradient>
<linearGradient id="paint14_linear_2575_3791" x1="130.275" y1="99.8614" x2="130.193" y2="120.511" gradientUnits="userSpaceOnUse">
<stop stop-color="white"/>
<stop offset="0.1596" stop-color="#FCFCFC" stop-opacity="0.8404"/>
<stop offset="0.2897" stop-color="#F2F2F2" stop-opacity="0.7103"/>
<stop offset="0.4094" stop-color="#E1E1E1" stop-opacity="0.5906"/>
<stop offset="0.523" stop-color="#C8C8C8" stop-opacity="0.477"/>
<stop offset="0.6322" stop-color="#A9A9A9" stop-opacity="0.3678"/>
<stop offset="0.7381" stop-color="#838383" stop-opacity="0.2619"/>
<stop offset="0.8415" stop-color="#565656" stop-opacity="0.1585"/>
<stop offset="0.9402" stop-color="#232323" stop-opacity="0.0598358"/>
<stop offset="1" stop-opacity="0"/>
</linearGradient>
<linearGradient id="paint15_linear_2575_3791" x1="130.275" y1="99.8614" x2="130.193" y2="120.511" gradientUnits="userSpaceOnUse">
<stop stop-color="white"/>
<stop offset="0.1596" stop-color="#FCFCFC" stop-opacity="0.8404"/>
<stop offset="0.2897" stop-color="#F2F2F2" stop-opacity="0.7103"/>
<stop offset="0.4094" stop-color="#E1E1E1" stop-opacity="0.5906"/>
<stop offset="0.523" stop-color="#C8C8C8" stop-opacity="0.477"/>
<stop offset="0.6322" stop-color="#A9A9A9" stop-opacity="0.3678"/>
<stop offset="0.7381" stop-color="#838383" stop-opacity="0.2619"/>
<stop offset="0.8415" stop-color="#565656" stop-opacity="0.1585"/>
<stop offset="0.9402" stop-color="#232323" stop-opacity="0.0598358"/>
<stop offset="1" stop-opacity="0"/>
</linearGradient>
<linearGradient id="paint16_linear_2575_3791" x1="130.275" y1="99.8614" x2="130.193" y2="120.511" gradientUnits="userSpaceOnUse">
<stop stop-color="white"/>
<stop offset="0.1596" stop-color="#FCFCFC" stop-opacity="0.8404"/>
<stop offset="0.2897" stop-color="#F2F2F2" stop-opacity="0.7103"/>
<stop offset="0.4094" stop-color="#E1E1E1" stop-opacity="0.5906"/>
<stop offset="0.523" stop-color="#C8C8C8" stop-opacity="0.477"/>
<stop offset="0.6322" stop-color="#A9A9A9" stop-opacity="0.3678"/>
<stop offset="0.7381" stop-color="#838383" stop-opacity="0.2619"/>
<stop offset="0.8415" stop-color="#565656" stop-opacity="0.1585"/>
<stop offset="0.9402" stop-color="#232323" stop-opacity="0.0598358"/>
<stop offset="1" stop-opacity="0"/>
</linearGradient>
<linearGradient id="paint17_linear_2575_3791" x1="130.275" y1="99.8614" x2="130.193" y2="120.511" gradientUnits="userSpaceOnUse">
<stop stop-color="white"/>
<stop offset="0.1596" stop-color="#FCFCFC" stop-opacity="0.8404"/>
<stop offset="0.2897" stop-color="#F2F2F2" stop-opacity="0.7103"/>
<stop offset="0.4094" stop-color="#E1E1E1" stop-opacity="0.5906"/>
<stop offset="0.523" stop-color="#C8C8C8" stop-opacity="0.477"/>
<stop offset="0.6322" stop-color="#A9A9A9" stop-opacity="0.3678"/>
<stop offset="0.7381" stop-color="#838383" stop-opacity="0.2619"/>
<stop offset="0.8415" stop-color="#565656" stop-opacity="0.1585"/>
<stop offset="0.9402" stop-color="#232323" stop-opacity="0.0598358"/>
<stop offset="1" stop-opacity="0"/>
</linearGradient>
<linearGradient id="paint18_linear_2575_3791" x1="130.275" y1="99.8614" x2="130.193" y2="120.511" gradientUnits="userSpaceOnUse">
<stop stop-color="white"/>
<stop offset="0.1596" stop-color="#FCFCFC" stop-opacity="0.8404"/>
<stop offset="0.2897" stop-color="#F2F2F2" stop-opacity="0.7103"/>
<stop offset="0.4094" stop-color="#E1E1E1" stop-opacity="0.5906"/>
<stop offset="0.523" stop-color="#C8C8C8" stop-opacity="0.477"/>
<stop offset="0.6322" stop-color="#A9A9A9" stop-opacity="0.3678"/>
<stop offset="0.7381" stop-color="#838383" stop-opacity="0.2619"/>
<stop offset="0.8415" stop-color="#565656" stop-opacity="0.1585"/>
<stop offset="0.9402" stop-color="#232323" stop-opacity="0.0598358"/>
<stop offset="1" stop-opacity="0"/>
</linearGradient>
<linearGradient id="paint19_linear_2575_3791" x1="130.275" y1="99.8614" x2="130.193" y2="120.511" gradientUnits="userSpaceOnUse">
<stop stop-color="white"/>
<stop offset="0.1596" stop-color="#FCFCFC" stop-opacity="0.8404"/>
<stop offset="0.2897" stop-color="#F2F2F2" stop-opacity="0.7103"/>
<stop offset="0.4094" stop-color="#E1E1E1" stop-opacity="0.5906"/>
<stop offset="0.523" stop-color="#C8C8C8" stop-opacity="0.477"/>
<stop offset="0.6322" stop-color="#A9A9A9" stop-opacity="0.3678"/>
<stop offset="0.7381" stop-color="#838383" stop-opacity="0.2619"/>
<stop offset="0.8415" stop-color="#565656" stop-opacity="0.1585"/>
<stop offset="0.9402" stop-color="#232323" stop-opacity="0.0598358"/>
<stop offset="1" stop-opacity="0"/>
</linearGradient>
<linearGradient id="paint20_linear_2575_3791" x1="130.275" y1="99.8614" x2="130.193" y2="120.511" gradientUnits="userSpaceOnUse">
<stop stop-color="white"/>
<stop offset="0.1596" stop-color="#FCFCFC" stop-opacity="0.8404"/>
<stop offset="0.2897" stop-color="#F2F2F2" stop-opacity="0.7103"/>
<stop offset="0.4094" stop-color="#E1E1E1" stop-opacity="0.5906"/>
<stop offset="0.523" stop-color="#C8C8C8" stop-opacity="0.477"/>
<stop offset="0.6322" stop-color="#A9A9A9" stop-opacity="0.3678"/>
<stop offset="0.7381" stop-color="#838383" stop-opacity="0.2619"/>
<stop offset="0.8415" stop-color="#565656" stop-opacity="0.1585"/>
<stop offset="0.9402" stop-color="#232323" stop-opacity="0.0598358"/>
<stop offset="1" stop-opacity="0"/>
</linearGradient>
<linearGradient id="paint21_linear_2575_3791" x1="130.275" y1="99.8614" x2="130.193" y2="120.511" gradientUnits="userSpaceOnUse">
<stop stop-color="white"/>
<stop offset="0.1596" stop-color="#FCFCFC" stop-opacity="0.8404"/>
<stop offset="0.2897" stop-color="#F2F2F2" stop-opacity="0.7103"/>
<stop offset="0.4094" stop-color="#E1E1E1" stop-opacity="0.5906"/>
<stop offset="0.523" stop-color="#C8C8C8" stop-opacity="0.477"/>
<stop offset="0.6322" stop-color="#A9A9A9" stop-opacity="0.3678"/>
<stop offset="0.7381" stop-color="#838383" stop-opacity="0.2619"/>
<stop offset="0.8415" stop-color="#565656" stop-opacity="0.1585"/>
<stop offset="0.9402" stop-color="#232323" stop-opacity="0.0598358"/>
<stop offset="1" stop-opacity="0"/>
</linearGradient>
<linearGradient id="paint22_linear_2575_3791" x1="130.275" y1="99.8614" x2="130.193" y2="120.511" gradientUnits="userSpaceOnUse">
<stop stop-color="white"/>
<stop offset="0.1596" stop-color="#FCFCFC" stop-opacity="0.8404"/>
<stop offset="0.2897" stop-color="#F2F2F2" stop-opacity="0.7103"/>
<stop offset="0.4094" stop-color="#E1E1E1" stop-opacity="0.5906"/>
<stop offset="0.523" stop-color="#C8C8C8" stop-opacity="0.477"/>
<stop offset="0.6322" stop-color="#A9A9A9" stop-opacity="0.3678"/>
<stop offset="0.7381" stop-color="#838383" stop-opacity="0.2619"/>
<stop offset="0.8415" stop-color="#565656" stop-opacity="0.1585"/>
<stop offset="0.9402" stop-color="#232323" stop-opacity="0.0598358"/>
<stop offset="1" stop-opacity="0"/>
</linearGradient>
</defs>
</svg>
